<?xml version="1.0" encoding="UTF-8" standalone="no"?><!DOCTYPE svg PUBLIC "-//W3C//DTD SVG 1.1//EN" "http://www.w3.org/Graphics/SVG/1.1/DTD/svg11.dtd"><svg width="100%" height="100%" viewBox="0 0 258 148" version="1.1" xmlns="http://www.w3.org/2000/svg" xmlns:xlink="http://www.w3.org/1999/xlink" xml:space="preserve" style="fill-rule:evenodd;clip-rule:evenodd;stroke-linejoin:round;stroke-miterlimit:1.41421;"><path d="M257.5,135.25c0,6.905 -57.644,12.5 -128.75,12.5c-71.106,0 -128.75,-5.595 -128.75,-12.5c0,-6.905 57.644,-12.5 128.75,-12.5c71.106,0 128.75,5.595 128.75,12.5" style="fill:#ddf1fb;fill-rule:nonzero;"/><path d="M159.26,20.337l-38.988,0.161l-5.475,20.836l50.854,0l-6.391,-20.997Z" style="fill:#1f66aa;fill-rule:nonzero;"/><path d="M66.568,23.164l-5.706,18.169l47.181,0l4.357,-18.329l-45.832,0.16Z" style="fill:#1f66aa;fill-rule:nonzero;"/><path d="M207.794,20.273c0.128,0.738 0.825,2.271 1.828,4.188l23.469,17.233c0.103,0.076 0.182,0.17 0.247,0.271c3.084,-0.107 4.92,-0.345 5.701,-0.56c-1.259,-3.319 -10.769,-19.038 -12.418,-20.876c-1.059,-0.264 -6.599,-0.639 -12.097,-0.639c-4.032,0 -5.996,0.21 -6.73,0.383" style="fill:#1f66aa;fill-rule:nonzero;"/><path d="M16.027,41.339l39.517,0.158l4.357,-18.33l-38.167,0l-5.707,18.172Z" style="fill:#1f66aa;fill-rule:nonzero;"/><path d="M220.222,41.488c0.748,0.226 4.426,0.534 9.568,0.534c0.129,0 0.239,-0.003 0.365,-0.003l-18.224,-13.382c3.17,5.5 7.174,11.733 8.291,12.851" style="fill:#1f66aa;fill-rule:nonzero;"/><path d="M165.892,20.667c0.371,3.698 6.417,20.28 7.919,22.375c0.425,0.122 2.105,0.385 8.659,0.385c2.912,0 6.247,-0.051 9.55,-0.122l-21.925,-15.318c-0.453,-0.317 -0.564,-0.94 -0.247,-1.393c0.316,-0.452 0.939,-0.563 1.392,-0.247l24.158,16.878c3.344,-0.085 6.484,-0.182 8.912,-0.256c2.549,-0.078 4.392,-0.135 5.024,-0.135c2.158,0 3.397,-1.23 3.415,-1.638c-0.365,-0.695 -8.281,-14.598 -11.663,-20.529l-35.194,0Z" style="fill:#1f66aa;fill-rule:nonzero;"/><path d="M24.969,92.727l-1.228,0.023c-0.678,0.013 -6.659,0.136 -7.812,0.456c-0.365,0.102 -1.466,0.408 -1.252,11.419l-3.587,0l-1.184,3.188l8.594,0l0,-0.5c0,-7.938 5.55,-13.654 5.606,-13.711l0.863,-0.875Z" style="fill:#1f66aa;fill-rule:nonzero;"/><path d="M31.584,98.084c-3.479,0 -6.418,5.992 -6.418,13.084c0,7.092 2.939,13.083 6.418,13.083c3.478,0 6.417,-5.991 6.417,-13.083c0,-7.092 -2.939,-13.084 -6.417,-13.084" style="fill:#1f66aa;fill-rule:nonzero;"/><path d="M229.31,106.463c1.165,-9.202 12.827,-37.965 18.49,-49.04c0.207,7.473 0.755,22.528 1.174,33.717l-0.002,0.003l0.002,0.002c0.25,6.672 0.453,11.968 0.511,13.457c-1.298,0.258 -6.258,1.073 -20.175,1.861m-53.305,1.537l-0.646,-0.007c0.193,-4.307 1.305,-33.582 -3.203,-51.33c11.802,3.945 20.627,9.374 28.051,14.742c13.118,9.485 20.804,21.05 23.489,35.349c-10.963,0.521 -26.313,0.996 -47.691,1.246m-1.647,-0.016l-19.636,-0.199c-4.318,-11.273 -11.425,-23.118 -13.888,-23.118c-0.476,0 -2.069,-0.058 -4.275,-0.141c-6.734,-0.248 -19.048,-0.701 -24.047,-0.397c0.11,-3.746 0.976,-23.559 1.409,-33.394c6.785,0.009 12.868,0.015 17.829,0.015c16.096,0 28.835,2.193 39.281,5.547c4.675,17.547 3.516,47.507 3.327,51.687m-22.752,-0.23c-0.961,-2.67 -7.746,-20.004 -21.606,-20.004c-15.401,0 -17.682,10.782 -17.748,21.499c-0.952,-0.004 -2.001,-0.018 -3.129,-0.043c-0.372,-7.368 -0.971,-26.718 0.591,-58.477c1.085,0.001 2.152,0.003 3.206,0.005c-0.465,10.555 -1.42,32.397 -1.42,33.933l0,0.543l0.542,-0.045c4.516,-0.374 17.503,0.103 24.479,0.361c2.217,0.082 3.819,0.141 4.313,0.141c1.467,0 8.102,9.955 12.811,22.108l-2.039,-0.021Zm-93.282,1.869c-0.091,-0.675 -0.175,-1.42 -0.251,-2.226c12.958,0.898 36.626,2.451 50.101,2.787c0.046,0.827 0.086,1.454 0.115,1.874c-12.987,-0.606 -36.144,-1.699 -49.965,-2.435m-0.357,-59.004c17.058,0.041 35.329,0.083 50.746,0.108c-1.555,31.651 -0.965,51.002 -0.591,58.456c-13.517,-0.341 -37.246,-1.9 -50.138,-2.794c-1.137,-13.856 -0.406,-43.186 -0.017,-55.77m-0.66,-7.887c-0.107,0.45 -0.51,0.768 -0.973,0.768l-0.004,0l-41.667,-0.166c-0.318,-0.002 -0.616,-0.154 -0.803,-0.41c-0.188,-0.257 -0.242,-0.587 -0.147,-0.89l6.333,-20.167c0.131,-0.417 0.517,-0.7 0.954,-0.7l40.167,0c0.306,0 0.595,0.14 0.785,0.379c0.189,0.241 0.258,0.554 0.188,0.852l-4.833,20.334Zm-38.884,-26.729c16.698,-10.217 90.367,-15.003 139.577,-15.003c46.92,0 60.878,5.919 66.85,9.064c1.97,2.012 1.972,2.611 1.917,2.744c-0.056,0.133 -0.411,0.442 -2.517,0.442c-1.988,0 -14.618,0.16 -29.242,0.346c-11.122,0.141 -23.348,0.296 -32.763,0.404c-15.097,0.173 -77.224,1.918 -114.344,2.96c-16.338,0.459 -28.142,0.79 -28.901,0.79c-0.269,0 -0.741,-0.037 -0.883,-0.286c-0.204,-0.36 0.122,-1.137 0.313,-1.458l-0.007,-0.003Zm222.74,25.93c-0.089,0.882 -0.21,2.089 -11.373,2.089c-1.583,0 -9.538,-0.042 -10.704,-0.874c-0.981,-0.701 -5.331,-7.556 -7.443,-11.071c-1.56,-2.596 -2.707,-4.637 -3.558,-6.263l-0.009,-0.008c-0.259,-0.19 -0.383,-0.48 -0.392,-0.777c-2.229,-4.412 -1.944,-5.272 -1.792,-5.699c0.253,-0.708 0.515,-1.44 8.633,-1.44c0.118,0 11.886,0.07 13.197,0.945c1.153,0.769 13.651,20.999 13.441,23.098m-26.811,0.543c-0.725,1.174 -2.558,2.358 -5.018,2.358c-0.602,0 -2.431,0.056 -4.962,0.133c-5.587,0.172 -14.937,0.459 -21.902,0.459c-9.124,0 -9.595,-0.47 -10.01,-0.885c-1.047,-1.048 -3.855,-8.443 -5.193,-12.206c-4.039,-11.359 -3.401,-12.635 -3.161,-13.116c0.169,-0.339 0.516,-0.552 0.894,-0.552l36.667,0c0.36,0 0.691,0.192 0.869,0.504c0.47,0.825 11.52,20.203 12.026,21.215c0.308,0.616 0.231,1.377 -0.21,2.09m-101.644,0.468c-0.189,-0.245 -0.253,-0.564 -0.175,-0.864l6,-22.834c0.115,-0.438 0.51,-0.744 0.964,-0.746l40.5,-0.166l0.003,0c0.44,0 0.829,0.287 0.957,0.709l7,23c0.092,0.302 0.036,0.631 -0.153,0.886c-0.189,0.255 -0.487,0.405 -0.804,0.405l-53.5,0c-0.31,0 -0.602,-0.144 -0.792,-0.39m-2.732,2.703c1.079,0.005 2.131,0.011 3.168,0.016c-0.032,0.735 -0.096,2.166 -0.18,4.071c-1.052,-0.002 -2.117,-0.004 -3.202,-0.005c0.068,-1.339 0.139,-2.701 0.214,-4.082m-1.001,-0.006c-0.075,1.384 -0.146,2.746 -0.214,4.086c-15.417,-0.025 -33.696,-0.067 -50.762,-0.108c0.063,-2.007 0.115,-3.491 0.144,-4.282c17.239,0.109 35.872,0.224 50.832,0.304m-0.141,-2.307l-49.334,0c-0.318,0 -0.617,-0.152 -0.806,-0.409c-0.188,-0.256 -0.243,-0.587 -0.148,-0.891l6.334,-20.167c0.13,-0.416 0.515,-0.699 0.951,-0.7l47.833,-0.167l0.003,0c0.305,0 0.594,0.139 0.784,0.379c0.19,0.24 0.26,0.554 0.189,0.853l-4.833,20.333c-0.107,0.451 -0.51,0.769 -0.973,0.769m61.876,11.808c-10.414,-3.268 -23.065,-5.392 -38.96,-5.392c-4.95,0 -11.018,-0.006 -17.785,-0.015c0.085,-1.927 0.149,-3.366 0.18,-4.067c9.783,0.05 17.482,0.082 21.355,0.082c7.226,0 20.051,1.441 33.931,5.658c0.465,1.151 0.891,2.4 1.279,3.734m-139.126,70.109c-4.159,0 -7.417,-6.185 -7.417,-14.083c0,-7.897 3.258,-14.084 7.417,-14.084c4.159,0 7.416,6.187 7.416,14.084c0,7.898 -3.257,14.083 -7.416,14.083m17.753,-19.477c-1.119,-2.537 -7.027,-15.524 -10.587,-15.524c-3.448,0 -24.761,-0.989 -24.976,-0.999l-0.115,-0.006l-0.105,0.045c-0.474,0.203 -2.004,1.598 -2.053,10.997c-2.453,0.364 -4.781,3.322 -5.632,6.213l-2.6,0l0.219,-5.906l2.519,-1.008l-0.007,-0.345c-0.007,-0.399 -0.708,-39.368 0.916,-48.741c3.848,0.003 15.848,0.032 31.271,0.07c5.913,0.015 12.252,0.031 18.78,0.047c-0.388,12.56 -1.111,41.698 0.01,55.701c-3.968,-0.277 -6.752,-0.479 -7.64,-0.544m200.649,-14.341c0.702,-1.054 2.952,-4.762 2.952,-9.058c0,-5.991 -2.703,-8.291 -3.609,-8.894c-0.265,-7.495 -0.494,-14.367 -0.579,-17.993l-0.043,-1.856l-0.895,1.627c-5.419,9.852 -18.384,41.445 -19.516,51.26c-1.139,0.062 -2.335,0.125 -3.591,0.186c-2.712,-14.625 -10.535,-26.437 -23.912,-36.11c-7.627,-5.515 -16.717,-11.094 -28.946,-15.092c-0.364,-1.318 -0.762,-2.562 -1.197,-3.719c22.076,6.938 46.467,20.948 55.125,47.371l0.487,1.486l0.465,-1.491c0.818,-2.617 1.625,-5.385 2.481,-8.317c4.406,-15.104 9.399,-32.225 19.121,-40.706l0.155,-0.136l0.015,-0.205c0.011,-0.15 0.207,-3.753 -4.58,-11.06c-4.413,-6.735 -11.951,-19.693 -12.89,-21.31c0.177,-0.969 0.515,-4.848 -4.539,-7.605c-0.316,-0.172 -0.659,-0.359 -1.032,-0.556c-0.037,-0.038 -0.066,-0.07 -0.104,-0.108l-0.035,0.034c-6.041,-3.183 -20.146,-9.181 -67.319,-9.181c-43.412,0 -135.592,4.462 -143.439,18.261c-1.38,2.53 -0.445,5.021 -0.106,5.762l-8.185,20.972l0.727,0.005c0.501,0.004 23.522,0.161 50.146,0.331c-0.029,0.804 -0.081,2.289 -0.145,4.286c-6.538,-0.016 -12.887,-0.032 -18.809,-0.047c-16.03,-0.039 -28.363,-0.07 -31.689,-0.07l-0.409,0l-0.081,0.402c-1.675,8.373 -1.09,44.789 -1.016,49.012l-2.481,0.992l-0.282,7.594l4.41,0l0.094,-0.379c0.695,-2.776 3.028,-5.871 5.265,-5.871l0.5,0l0,-0.5c0,-8.311 1.178,-10.191 1.409,-10.492c2.232,0.103 21.501,0.992 24.841,0.992c2.311,0 7.232,9.323 9.792,15.199l0.121,0.278l0.3,0.022c0.12,0.009 3.244,0.239 8.101,0.577c0.074,0.809 0.155,1.561 0.244,2.243c-4.511,-0.243 -7.902,-0.442 -9.412,-0.565c-3.024,-0.378 -7.345,-11.434 -8.754,-15.662l-0.114,-0.342l-5.361,0c-5.795,0 -13.5,1.866 -13.5,18c0,13.972 6.542,23 16.667,23c4.229,0 7.666,-1.372 10.217,-4.079c4.829,-5.123 5.011,-13.373 4.967,-15.575c3.972,0.091 29.135,0.665 39.656,0.973c0.269,9.306 8.262,14.848 15.993,14.848c7.366,0 9.988,-4.229 10.096,-4.41l0.063,-0.167c0.027,-0.152 0.674,-3.808 0.674,-12.256c0,-6.943 1.905,-12.274 5.661,-15.845c5.411,-5.144 12.906,-4.824 12.981,-4.823l2.888,0.147l-2.671,-1.108c-0.358,-0.147 -8.838,-3.591 -15.964,0.101c-2.885,1.494 -4.908,4.691 -5.697,9.003c-0.808,4.412 -0.141,9.251 1.546,11.664c-1.192,-0.055 -4.046,-0.187 -7.951,-0.368c-0.027,-0.4 -0.068,-1.024 -0.117,-1.898c1.307,0.027 2.508,0.043 3.574,0.043l0.5,0l0,-0.5c0,-10.907 2.03,-21 16.75,-21c14.213,0 20.711,19.458 20.775,19.654l0.111,0.342l25.12,0.254c63.585,-0.742 73.729,-3.405 74.13,-3.518l0.379,-0.108l-0.015,-0.393c-0.005,-0.149 -0.228,-5.911 -0.514,-13.548" style="fill:#1f66aa;fill-rule:nonzero;"/><path d="M133.584,104.251c-4.641,0 -8.417,7.028 -8.417,15.667c0,8.639 3.776,15.666 8.417,15.666c4.641,0 8.416,-7.027 8.416,-15.666c0,-8.639 -3.775,-15.667 -8.416,-15.667" style="fill:#1f66aa;fill-rule:nonzero;"/><path d="M133.584,136.584c-5.192,0 -9.417,-7.477 -9.417,-16.666c0,-9.19 4.225,-16.667 9.417,-16.667c5.192,0 9.416,7.477 9.416,16.667c0,9.189 -4.224,16.666 -9.416,16.666m24.166,-15.333c-6.646,0 -8.197,-5.129 -8.845,-10.188c-1.799,-8.423 -8.141,-15.812 -13.571,-15.812c-14.141,0 -15.667,18.357 -15.667,26.25c0,19.354 10.676,26.25 20.667,26.25c16.704,0 17.905,-25.721 17.916,-25.98l0.02,-0.52l-0.52,0Z" style="fill:#1f66aa;fill-rule:nonzero;"/><path d="M215.917,120.331l0,-9.247l-0.011,-0.576l-0.572,0.083c-1.321,0.192 -42.006,0.243 -63.334,0.243l-0.57,0l0.074,0.565c0.992,7.537 6.788,8.735 11.726,8.935c1.825,0.073 7.304,0.111 16.286,0.111c15.28,0 35.699,-0.11 35.904,-0.111l0.497,-0.003Z" style="fill:#1f66aa;fill-rule:nonzero;"/><path d="M196.501,122.45c0.581,8.888 7.837,17.884 20.583,17.884c15.335,0 18.216,-17.662 18.244,-17.841l0.088,-0.575l-38.95,0l0.035,0.532Z" style="fill:#1f66aa;fill-rule:nonzero;"/><path d="M246.453,108.647l-0.555,0.115c-0.06,0.012 -6.233,1.244 -26.573,1.572l-0.492,0.008l0,0.493c0,4.772 -0.082,8.948 -0.083,8.99l-0.011,0.538l0.538,-0.029c0.948,-0.051 23.276,-1.268 27.128,-2.524l0.337,-0.11l0.008,-0.355c0.083,-3.897 -0.248,-8.092 -0.252,-8.134l-0.045,-0.564Z" style="fill:#1f66aa;fill-rule:nonzero;"/><path d="M251.702,107.533c-0.776,0 -1.628,0.076 -2.533,0.225l-0.419,0.068l0.001,8.975l0.466,0.032c0,0 0.19,0.013 0.511,0.013c0.926,0 2.719,-0.105 4.329,-0.802c2.089,-0.906 3.193,-2.534 3.193,-4.71c0,-1.753 -1.453,-3.801 -5.548,-3.801" style="fill:#1f66aa;fill-rule:nonzero;"/><path d="M180.334,84.833c0,5.514 4.86,10 10.833,10c5.973,0 10.833,-4.486 10.833,-10c0,-5.514 -4.86,-10 -10.833,-10c-5.973,0 -10.833,4.486 -10.833,10" style="fill:#1f66aa;fill-rule:nonzero;"/><path d="M180.917,72c2.619,0 4.75,-1.832 4.75,-4.083c0,-2.251 -2.131,-4.084 -4.75,-4.084c-2.619,0 -4.75,1.833 -4.75,4.084c0,2.251 2.131,4.083 4.75,4.083" style="fill:#1f66aa;fill-rule:nonzero;"/></svg>