<?xml version="1.0" encoding="UTF-8" standalone="no"?><!DOCTYPE svg PUBLIC "-//W3C//DTD SVG 1.1//EN" "http://www.w3.org/Graphics/SVG/1.1/DTD/svg11.dtd"><svg width="100%" height="100%" viewBox="0 0 489 105" version="1.1" xmlns="http://www.w3.org/2000/svg" xmlns:xlink="http://www.w3.org/1999/xlink" xml:space="preserve" style="fill-rule:evenodd;clip-rule:evenodd;stroke-linejoin:round;stroke-miterlimit:1.41421;"><path d="M19.817,15.329c1.611,0.586 3.132,1.483 4.56,2.692l-3.736,5.164c-1.832,-1.391 -3.681,-2.087 -5.549,-2.087c-1.942,0 -3.406,0.714 -4.395,2.142c-0.989,1.429 -1.484,3.736 -1.484,6.922c0,3.077 0.495,5.257 1.484,6.539c0.989,1.282 2.417,1.922 4.286,1.922c0.988,0 1.885,-0.155 2.691,-0.466c0.806,-0.311 1.777,-0.815 2.913,-1.512l3.79,5.385c-2.893,2.307 -6.172,3.461 -9.834,3.461c-2.967,0 -5.531,-0.632 -7.692,-1.895c-2.161,-1.264 -3.827,-3.04 -4.999,-5.33c-1.173,-2.288 -1.758,-4.972 -1.758,-8.048c0,-3.077 0.585,-5.805 1.758,-8.186c1.172,-2.381 2.838,-4.24 4.999,-5.577c2.161,-1.336 4.67,-2.005 7.527,-2.005c2.014,0 3.827,0.294 5.439,0.879" style="fill:#f26e25;fill-rule:nonzero;"/><path d="M36.19,23.047c-0.88,1.483 -1.32,3.783 -1.32,6.895c0,3.187 0.431,5.513 1.293,6.978c0.86,1.465 2.188,2.197 3.983,2.197c1.758,0 3.075,-0.741 3.955,-2.225c0.88,-1.483 1.319,-3.782 1.319,-6.895c0,-3.186 -0.432,-5.512 -1.291,-6.977c-0.862,-1.465 -2.189,-2.198 -3.983,-2.198c-1.759,0 -3.077,0.742 -3.956,2.225m14.449,-4.505c2.527,2.729 3.791,6.547 3.791,11.455c0,3.113 -0.577,5.833 -1.731,8.159c-1.154,2.326 -2.801,4.13 -4.944,5.412c-2.143,1.281 -4.68,1.922 -7.609,1.922c-4.433,0 -7.921,-1.364 -10.466,-4.093c-2.547,-2.728 -3.819,-6.546 -3.819,-11.455c0,-3.112 0.577,-5.832 1.731,-8.159c1.154,-2.325 2.802,-4.129 4.944,-5.411c2.142,-1.282 4.679,-1.923 7.61,-1.923c4.468,0 7.966,1.365 10.493,4.093" style="fill:#f26e25;fill-rule:nonzero;"/><path d="M74.044,44.557l-10.275,0l-9.394,-29.173l9.45,0l5.165,22.58l5.383,-22.58l8.846,0l-9.176,29.173Z" style="fill:#f26e25;fill-rule:nonzero;"/><path d="M94.426,23.047c-0.879,1.483 -1.319,3.783 -1.319,6.895c0,3.187 0.43,5.513 1.292,6.978c0.859,1.465 2.187,2.197 3.983,2.197c1.758,0 3.076,-0.741 3.955,-2.225c0.879,-1.483 1.318,-3.782 1.318,-6.895c0,-3.186 -0.43,-5.512 -1.291,-6.977c-0.86,-1.465 -2.188,-2.198 -3.982,-2.198c-1.759,0 -3.077,0.742 -3.956,2.225m14.449,-4.505c2.528,2.729 3.791,6.547 3.791,11.455c0,3.113 -0.577,5.833 -1.73,8.159c-1.155,2.326 -2.803,4.13 -4.946,5.412c-2.142,1.281 -4.678,1.922 -7.608,1.922c-4.433,0 -7.921,-1.364 -10.466,-4.093c-2.547,-2.728 -3.819,-6.546 -3.819,-11.455c0,-3.112 0.577,-5.832 1.731,-8.159c1.154,-2.325 2.802,-4.129 4.944,-5.411c2.143,-1.282 4.679,-1.923 7.61,-1.923c4.468,0 7.966,1.365 10.493,4.093" style="fill:#f26e25;fill-rule:nonzero;"/><path d="M126.511,44.557l-8.681,0l0,-29.173l8.681,0l0,29.173Zm-0.687,-43.156c0.97,0.934 1.456,2.115 1.456,3.544c0,1.428 -0.486,2.609 -1.456,3.543c-0.971,0.934 -2.207,1.401 -3.709,1.401c-1.502,0 -2.728,-0.467 -3.68,-1.401c-0.954,-0.934 -1.429,-2.115 -1.429,-3.543c0,-1.429 0.475,-2.61 1.429,-3.544c0.952,-0.934 2.178,-1.401 3.68,-1.401c1.502,0 2.738,0.467 3.709,1.401" style="fill:#f26e25;fill-rule:nonzero;"/><path d="M151.618,43.183c-1.062,0.733 -2.299,1.301 -3.708,1.703c-1.411,0.403 -2.812,0.605 -4.203,0.605c-6.373,-0.037 -9.56,-3.553 -9.56,-10.549l0,-13.515l-4.12,0l0,-6.044l4.12,0l0,-6.318l8.681,-0.989l0,7.307l6.702,0l-0.933,6.044l-5.769,0l0,13.405c0,1.355 0.22,2.327 0.659,2.912c0.44,0.586 1.135,0.879 2.088,0.879c1.024,0 2.068,-0.33 3.131,-0.989l2.912,5.549Z" style="fill:#f26e25;fill-rule:nonzero;"/><path d="M179.143,44.557l-7.526,0l-0.385,-3.681c-2.125,3.077 -5.073,4.615 -8.846,4.615c-2.674,0 -4.697,-0.806 -6.071,-2.417c-1.373,-1.612 -2.06,-3.864 -2.06,-6.758l0,-20.932l8.681,0l0,19.833c0,1.428 0.228,2.427 0.686,2.994c0.458,0.569 1.163,0.852 2.116,0.852c1.831,0 3.406,-1.135 4.724,-3.406l0,-20.273l8.681,0l0,29.173Z" style="fill:#f26e25;fill-rule:nonzero;"/><path d="M204.69,14.944l-1.373,8.406c-1.099,-0.256 -1.979,-0.385 -2.638,-0.385c-1.684,0 -2.985,0.586 -3.9,1.758c-0.916,1.173 -1.63,2.931 -2.143,5.275l0,14.559l-8.68,0l0,-29.174l7.582,0l0.714,5.604c0.659,-2.013 1.657,-3.589 2.994,-4.725c1.337,-1.134 2.847,-1.703 4.533,-1.703c1.061,0 2.032,0.129 2.911,0.385" style="fill:#f26e25;fill-rule:nonzero;"/><path d="M219.551,38.568c0.787,-0.476 1.456,-1.154 2.005,-2.033l0,-5.219l-2.143,0c-1.977,0 -3.452,0.348 -4.423,1.044c-0.97,0.696 -1.456,1.776 -1.456,3.241c0,1.173 0.303,2.079 0.908,2.719c0.603,0.642 1.436,0.962 2.499,0.962c0.952,0 1.822,-0.238 2.61,-0.714m10.987,-0.055c0.312,0.513 0.816,0.898 1.512,1.154l-1.813,5.658c-1.795,-0.146 -3.251,-0.531 -4.369,-1.153c-1.117,-0.623 -2.005,-1.629 -2.664,-3.022c-1.905,2.894 -4.835,4.34 -8.791,4.34c-2.893,0 -5.201,-0.843 -6.922,-2.527c-1.721,-1.684 -2.582,-3.882 -2.582,-6.593c0,-3.186 1.172,-5.622 3.516,-7.307c2.344,-1.684 5.732,-2.527 10.164,-2.527l2.967,0l0,-1.264c0,-1.721 -0.366,-2.902 -1.099,-3.543c-0.733,-0.641 -2.014,-0.962 -3.845,-0.962c-0.954,0 -2.107,0.137 -3.461,0.412c-1.356,0.275 -2.747,0.651 -4.176,1.126l-1.978,-5.713c1.831,-0.695 3.708,-1.227 5.631,-1.593c1.923,-0.366 3.709,-0.55 5.357,-0.55c4.175,0 7.233,0.861 9.175,2.582c1.941,1.722 2.912,4.305 2.912,7.747l0,11.317c0,1.099 0.155,1.905 0.466,2.418" style="fill:#f26e25;fill-rule:nonzero;"/><path d="M245.097,21.454c-0.788,0.861 -1.181,2.042 -1.181,3.544c0,1.575 0.393,2.793 1.181,3.653c0.787,0.862 1.858,1.291 3.214,1.291c1.429,0 2.518,-0.42 3.269,-1.263c0.75,-0.842 1.126,-2.106 1.126,-3.791c0,-3.15 -1.464,-4.725 -4.395,-4.725c-1.356,0 -2.427,0.431 -3.214,1.291m18.763,-4.368c-1.906,0.769 -4.707,1.154 -8.407,1.154c1.905,0.806 3.297,1.795 4.176,2.967c0.879,1.173 1.319,2.692 1.319,4.56c0,1.868 -0.495,3.543 -1.484,5.027c-0.989,1.483 -2.409,2.647 -4.258,3.489c-1.85,0.843 -4.02,1.263 -6.51,1.263c-1.173,0 -2.289,-0.11 -3.352,-0.329c-0.293,0.147 -0.521,0.376 -0.686,0.686c-0.165,0.312 -0.248,0.632 -0.248,0.962c0,0.549 0.21,0.98 0.632,1.291c0.421,0.312 1.273,0.467 2.555,0.467l4.396,0c2.233,0 4.193,0.367 5.877,1.099c1.685,0.733 2.986,1.74 3.902,3.022c0.915,1.282 1.373,2.728 1.373,4.34c0,3.039 -1.31,5.412 -3.928,7.115c-2.619,1.703 -6.4,2.554 -11.346,2.554c-3.552,0 -6.354,-0.377 -8.405,-1.127c-2.052,-0.75 -3.489,-1.804 -4.313,-3.158c-0.825,-1.355 -1.236,-3.059 -1.236,-5.11l7.801,0c0,0.88 0.174,1.575 0.523,2.088c0.347,0.513 0.979,0.897 1.895,1.153c0.915,0.256 2.233,0.385 3.955,0.385c2.381,0 4.029,-0.283 4.945,-0.851c0.915,-0.568 1.374,-1.383 1.374,-2.445c0,-0.879 -0.349,-1.575 -1.044,-2.088c-0.697,-0.513 -1.741,-0.769 -3.132,-0.769l-4.231,0c-3.003,0 -5.246,-0.54 -6.729,-1.621c-1.484,-1.079 -2.226,-2.463 -2.226,-4.148c0,-1.062 0.312,-2.096 0.935,-3.104c0.622,-1.006 1.464,-1.84 2.527,-2.5c-1.832,-0.988 -3.159,-2.15 -3.983,-3.488c-0.825,-1.337 -1.237,-2.957 -1.237,-4.862c0,-3.26 1.172,-5.851 3.517,-7.774c2.343,-1.923 5.438,-2.885 9.284,-2.885c2.93,0.074 5.412,-0.22 7.444,-0.879c2.034,-0.659 4.13,-1.629 6.291,-2.911l2.034,6.427Z" style="fill:#f26e25;fill-rule:nonzero;"/><path d="M283.638,26.921c-0.074,-4.468 -1.648,-6.703 -4.726,-6.703c-1.502,0 -2.655,0.541 -3.461,1.621c-0.805,1.081 -1.318,2.903 -1.538,5.467l9.725,0l0,-0.385Zm8.351,5.604l-18.021,0c0.256,2.454 0.935,4.175 2.033,5.164c1.099,0.989 2.618,1.483 4.56,1.483c1.172,0 2.307,-0.209 3.406,-0.631c1.099,-0.421 2.289,-1.072 3.571,-1.951l3.572,4.835c-3.407,2.711 -7.198,4.066 -11.373,4.066c-4.725,0 -8.351,-1.392 -10.878,-4.176c-2.528,-2.783 -3.791,-6.519 -3.791,-11.207c0,-2.967 0.531,-5.632 1.593,-7.994c1.062,-2.363 2.619,-4.231 4.67,-5.604c2.051,-1.374 4.505,-2.061 7.362,-2.061c4.212,0 7.508,1.319 9.889,3.956c2.381,2.638 3.572,6.3 3.572,10.988c0,1.209 -0.055,2.253 -0.165,3.132" style="fill:#f26e25;fill-rule:nonzero;"/><rect x="296.163" y="24.009" width="17.526" height="6.703" style="fill:#f26e25;fill-rule:nonzero;"/><path d="M321.353,43.32c-1.411,-1.446 -2.115,-3.506 -2.115,-6.181l0,-33.348l8.68,-0.934l0,33.953c0,1.208 0.495,1.813 1.484,1.813c0.512,0 0.988,-0.091 1.428,-0.275l1.703,6.153c-1.575,0.66 -3.333,0.989 -5.274,0.989c-2.526,0 -4.497,-0.723 -5.906,-2.17" style="fill:#f26e25;fill-rule:nonzero;"/><path d="M344.511,44.557l-8.681,0l0,-29.173l8.681,0l0,29.173Zm-0.687,-43.156c0.97,0.934 1.456,2.115 1.456,3.544c0,1.428 -0.486,2.609 -1.456,3.543c-0.971,0.934 -2.207,1.401 -3.709,1.401c-1.502,0 -2.728,-0.467 -3.68,-1.401c-0.954,-0.934 -1.429,-2.115 -1.429,-3.543c0,-1.429 0.475,-2.61 1.429,-3.544c0.952,-0.934 2.178,-1.401 3.68,-1.401c1.502,0 2.738,0.467 3.709,1.401" style="fill:#f26e25;fill-rule:nonzero;"/><path d="M369.672,29.998c0,-3.442 -0.403,-5.833 -1.208,-7.17c-0.807,-1.336 -1.96,-2.005 -3.462,-2.005c-1.977,0 -3.644,1.135 -4.999,3.406l0,12.087c1.172,1.905 2.71,2.857 4.615,2.857c3.369,0 5.054,-3.058 5.054,-9.175m6.182,-11.482c1.885,2.711 2.829,6.537 2.829,11.482c0,3.003 -0.467,5.678 -1.402,8.021c-0.933,2.345 -2.271,4.176 -4.01,5.494c-1.74,1.319 -3.8,1.978 -6.181,1.978c-1.612,0 -3.067,-0.321 -4.367,-0.961c-1.301,-0.641 -2.391,-1.566 -3.27,-2.775l-0.439,2.802l-7.692,0l0,-40.766l8.681,-0.934l0,15.494c0.842,-1.172 1.959,-2.116 3.352,-2.83c1.391,-0.714 2.838,-1.071 4.339,-1.071c3.553,0 6.272,1.355 8.16,4.066" style="fill:#f26e25;fill-rule:nonzero;"/><path d="M402.855,14.944l-1.373,8.406c-1.099,-0.256 -1.979,-0.385 -2.638,-0.385c-1.684,0 -2.985,0.586 -3.9,1.758c-0.916,1.173 -1.63,2.931 -2.143,5.275l0,14.559l-8.68,0l0,-29.174l7.582,0l0.714,5.604c0.659,-2.013 1.657,-3.589 2.994,-4.725c1.337,-1.134 2.847,-1.703 4.533,-1.703c1.061,0 2.032,0.129 2.911,0.385" style="fill:#f26e25;fill-rule:nonzero;"/><path d="M422.524,26.921c-0.074,-4.468 -1.648,-6.703 -4.726,-6.703c-1.502,0 -2.655,0.541 -3.461,1.621c-0.805,1.081 -1.318,2.903 -1.538,5.467l9.725,0l0,-0.385Zm8.351,5.604l-18.021,0c0.256,2.454 0.935,4.175 2.033,5.164c1.099,0.989 2.618,1.483 4.56,1.483c1.172,0 2.307,-0.209 3.406,-0.631c1.099,-0.421 2.289,-1.072 3.571,-1.951l3.572,4.835c-3.407,2.711 -7.198,4.066 -11.373,4.066c-4.725,0 -8.351,-1.392 -10.878,-4.176c-2.528,-2.783 -3.791,-6.519 -3.791,-11.207c0,-2.967 0.531,-5.632 1.593,-7.994c1.062,-2.363 2.619,-4.231 4.67,-5.604c2.051,-1.374 4.505,-2.061 7.362,-2.061c4.212,0 7.508,1.319 9.889,3.956c2.381,2.638 3.572,6.3 3.572,10.988c0,1.209 -0.055,2.253 -0.165,3.132" style="fill:#f26e25;fill-rule:nonzero;"/><path d="M442.713,37.002c0.971,0.971 1.456,2.134 1.456,3.489c0,1.392 -0.485,2.573 -1.456,3.543c-0.971,0.97 -2.134,1.456 -3.488,1.456c-1.393,0 -2.574,-0.486 -3.544,-1.456c-0.971,-0.97 -1.455,-2.151 -1.455,-3.543c0,-1.355 0.484,-2.518 1.455,-3.489c0.97,-0.97 2.151,-1.456 3.544,-1.456c1.354,0 2.517,0.486 3.488,1.456" style="fill:#f26e25;fill-rule:nonzero;"/><path d="M459.882,10.164c-0.549,0.586 -0.824,1.575 -0.824,2.967l0,2.252l6.868,0l-0.935,6.044l-5.933,0l0,23.13l-8.681,0l0,-23.13l-4.394,0l0,-6.044l4.394,0l0,-2.582c0,-2.929 0.962,-5.32 2.885,-7.17c1.923,-1.849 4.679,-2.774 8.268,-2.774c2.893,0 5.549,0.623 7.967,1.868l-2.363,5.659c-1.465,-0.733 -2.985,-1.099 -4.56,-1.099c-1.246,0 -2.142,0.294 -2.692,0.879" style="fill:#f26e25;fill-rule:nonzero;"/><path d="M487.516,14.944l-1.373,8.406c-1.099,-0.256 -1.979,-0.385 -2.638,-0.385c-1.684,0 -2.985,0.586 -3.9,1.758c-0.916,1.173 -1.63,2.931 -2.143,5.275l0,14.559l-8.68,0l0,-29.174l7.582,0l0.714,5.604c0.659,-2.013 1.657,-3.589 2.994,-4.725c1.337,-1.134 2.847,-1.703 4.533,-1.703c1.061,0 2.032,0.129 2.911,0.385" style="fill:#f26e25;fill-rule:nonzero;"/><path d="M3.628,96.292l9.896,0l-0.206,1.134l-10.893,0l0,-23.434l1.203,0l0,22.3Z" style="fill:#1f66aa;fill-rule:nonzero;"/><path d="M29.055,87.29c0,-2.176 -0.453,-3.894 -1.357,-5.153c-0.905,-1.26 -2.274,-1.891 -4.106,-1.891c-1.627,0 -2.978,0.659 -4.055,1.977c-1.077,1.317 -1.649,3.269 -1.718,5.858l11.236,0l0,-0.791Zm1.1,1.787l-12.336,0c0.091,2.543 0.687,4.449 1.787,5.721c1.099,1.271 2.543,1.907 4.329,1.907c0.962,0 1.809,-0.148 2.543,-0.446c0.733,-0.298 1.535,-0.779 2.405,-1.444l0.619,0.825c-0.825,0.711 -1.684,1.243 -2.577,1.597c-0.894,0.356 -1.89,0.533 -2.99,0.533c-2.268,0 -4.06,-0.807 -5.377,-2.422c-1.317,-1.615 -1.976,-3.854 -1.976,-6.717c0,-1.925 0.286,-3.597 0.859,-5.017c0.572,-1.421 1.38,-2.513 2.423,-3.282c1.042,-0.767 2.261,-1.15 3.659,-1.15c2.199,0 3.865,0.761 4.999,2.284c1.135,1.524 1.701,3.602 1.701,6.237c0,0.504 -0.023,0.962 -0.068,1.374" style="fill:#1f66aa;fill-rule:nonzero;"/><path d="M54.653,79.593c0.733,0.274 1.466,0.722 2.199,1.34l-0.653,0.79c-0.549,-0.481 -1.151,-0.842 -1.804,-1.082c-0.653,-0.24 -1.414,-0.361 -2.284,-0.361c-1.833,0 -3.322,0.716 -4.468,2.148c-1.145,1.432 -1.718,3.487 -1.718,6.167c0,2.611 0.567,4.616 1.701,6.014c1.134,1.397 2.617,2.095 4.45,2.095c1.603,0 3.035,-0.538 4.295,-1.615l0.653,0.825c-1.398,1.238 -3.024,1.856 -4.879,1.856c-1.49,0 -2.795,-0.362 -3.917,-1.082c-1.123,-0.722 -1.993,-1.771 -2.612,-3.145c-0.618,-1.374 -0.927,-3.023 -0.927,-4.948c0,-1.9 0.303,-3.562 0.91,-4.981c0.607,-1.421 1.471,-2.514 2.594,-3.283c1.122,-0.766 2.417,-1.15 3.883,-1.15c0.985,0 1.844,0.137 2.577,0.412" style="fill:#1f66aa;fill-rule:nonzero;"/><path d="M63.106,82.376c-1.077,1.421 -1.615,3.471 -1.615,6.15c0,2.612 0.533,4.627 1.598,6.048c1.065,1.42 2.548,2.13 4.45,2.13c1.878,0 3.361,-0.71 4.449,-2.13c1.088,-1.421 1.633,-3.47 1.633,-6.151c0,-2.634 -0.533,-4.655 -1.598,-6.065c-1.065,-1.408 -2.549,-2.113 -4.45,-2.113c-1.902,0 -3.39,0.711 -4.467,2.131m9.793,-0.79c1.283,1.603 1.924,3.883 1.924,6.837c0,2.932 -0.653,5.224 -1.958,6.873c-1.306,1.648 -3.082,2.474 -5.326,2.474c-2.268,0 -4.05,-0.82 -5.344,-2.457c-1.294,-1.638 -1.941,-3.9 -1.941,-6.787c0,-2.931 0.659,-5.222 1.976,-6.872c1.317,-1.649 3.098,-2.473 5.343,-2.473c2.268,0 4.043,0.801 5.326,2.405" style="fill:#1f66aa;fill-rule:nonzero;"/><path d="M85.234,97.426l-1.512,0l-6.563,-17.867l1.34,0l5.945,16.836l5.738,-16.836l1.271,0l-6.219,17.867Z" style="fill:#1f66aa;fill-rule:nonzero;"/><path d="M97.019,82.376c-1.076,1.421 -1.613,3.471 -1.613,6.15c0,2.612 0.531,4.627 1.597,6.048c1.065,1.42 2.547,2.13 4.451,2.13c1.876,0 3.361,-0.71 4.448,-2.13c1.088,-1.421 1.633,-3.47 1.633,-6.151c0.001,-2.634 -0.533,-4.655 -1.598,-6.065c-1.066,-1.408 -2.548,-2.113 -4.451,-2.113c-1.901,0 -3.391,0.711 -4.467,2.131m9.793,-0.79c1.283,1.603 1.924,3.883 1.924,6.837c0,2.932 -0.653,5.224 -1.957,6.873c-1.307,1.648 -3.082,2.474 -5.326,2.474c-2.268,0 -4.049,-0.82 -5.344,-2.457c-1.294,-1.638 -1.941,-3.9 -1.941,-6.787c0,-2.931 0.658,-5.222 1.976,-6.872c1.316,-1.649 3.098,-2.473 5.342,-2.473c2.267,0 4.043,0.801 5.326,2.405" style="fill:#1f66aa;fill-rule:nonzero;"/><path d="M116.192,97.426l-1.168,0l0,-17.867l1.168,0l0,17.867Zm0.121,-24.945c0.171,0.184 0.257,0.4 0.257,0.652c0,0.276 -0.086,0.504 -0.257,0.688c-0.171,0.183 -0.418,0.274 -0.739,0.274c-0.274,0 -0.504,-0.091 -0.687,-0.274c-0.184,-0.184 -0.275,-0.412 -0.275,-0.688c0,-0.252 0.091,-0.468 0.275,-0.652c0.183,-0.184 0.413,-0.275 0.687,-0.275c0.321,0 0.568,0.091 0.739,0.275" style="fill:#1f66aa;fill-rule:nonzero;"/><path d="M131.482,96.739c-1.099,0.687 -2.302,1.031 -3.607,1.031c-1.26,0 -2.251,-0.378 -2.972,-1.134c-0.722,-0.755 -1.083,-1.855 -1.083,-3.298l0,-12.783l-2.921,0l0,-0.996l2.921,0l0,-4.466l1.168,-0.104l0,4.57l4.88,0l-0.172,0.996l-4.708,0l0,12.714c0,2.29 0.997,3.436 2.99,3.436c1.008,0 2.004,-0.286 2.989,-0.86l0.515,0.894Z" style="fill:#1f66aa;fill-rule:nonzero;"/><path d="M147.254,97.426l-1.031,0l-0.034,-3.471c-0.642,1.146 -1.466,2.068 -2.474,2.767c-1.009,0.699 -2.199,1.048 -3.573,1.048c-1.627,0 -2.881,-0.47 -3.763,-1.409c-0.882,-0.939 -1.323,-2.29 -1.323,-4.055l0,-12.747l1.168,0l0,12.644c0,3.001 1.363,4.501 4.09,4.501c1.236,0 2.319,-0.354 3.247,-1.065c0.927,-0.709 1.769,-1.706 2.525,-2.989l0,-13.091l1.168,0l0,17.867Z" style="fill:#1f66aa;fill-rule:nonzero;"/><path d="M163.163,79.387l-0.24,1.064c-0.436,-0.136 -0.963,-0.206 -1.581,-0.206c-1.283,0 -2.32,0.464 -3.11,1.392c-0.791,0.928 -1.461,2.4 -2.01,4.416l0,11.373l-1.168,0l0,-17.867l0.996,0l0.069,4.261c0.481,-1.558 1.146,-2.72 1.993,-3.489c0.847,-0.766 1.936,-1.15 3.264,-1.15c0.641,0 1.237,0.068 1.787,0.206" style="fill:#1f66aa;fill-rule:nonzero;"/><path d="M176.151,93.2l0,-5.429l-3.677,0c-1.924,0 -3.419,0.396 -4.483,1.186c-1.066,0.79 -1.598,1.953 -1.598,3.487c0,1.352 0.378,2.401 1.134,3.145c0.756,0.744 1.798,1.116 3.126,1.116c2.429,0 4.261,-1.168 5.498,-3.505m1.512,2.731c0.228,0.448 0.619,0.786 1.169,1.014l-0.276,0.825c-0.733,-0.206 -1.283,-0.561 -1.649,-1.065c-0.366,-0.504 -0.562,-1.225 -0.584,-2.165c-1.329,2.154 -3.241,3.23 -5.738,3.23c-1.696,0 -3.024,-0.481 -3.986,-1.443c-0.963,-0.962 -1.443,-2.245 -1.443,-3.849c0,-1.832 0.636,-3.241 1.907,-4.225c1.271,-0.986 2.994,-1.478 5.171,-1.478l3.917,0l0,-1.993c0,-1.558 -0.332,-2.703 -0.996,-3.436c-0.665,-0.733 -1.811,-1.1 -3.437,-1.1c-1.374,0 -3.001,0.367 -4.879,1.1l-0.309,-0.962c1.901,-0.802 3.653,-1.203 5.258,-1.203c1.9,0 3.298,0.458 4.191,1.374c0.894,0.917 1.34,2.291 1.34,4.124l0,8.933c0,1.1 0.115,1.873 0.344,2.319" style="fill:#1f66aa;fill-rule:nonzero;"/><path d="M185.807,81.535c-0.871,0.882 -1.306,2.067 -1.306,3.557c0,1.557 0.469,2.759 1.409,3.607c0.939,0.848 2.165,1.272 3.676,1.272c1.604,0 2.84,-0.418 3.711,-1.254c0.87,-0.836 1.306,-2.011 1.306,-3.523c0,-1.512 -0.418,-2.72 -1.254,-3.625c-0.837,-0.904 -2.079,-1.357 -3.729,-1.357c-1.671,0 -2.943,0.441 -3.813,1.323m11.785,-1.941c-1.076,0.297 -2.657,0.458 -4.741,0.48c1.97,0.985 2.955,2.692 2.955,5.12c0,1.741 -0.556,3.139 -1.667,4.193c-1.111,1.053 -2.628,1.58 -4.553,1.58c-0.871,0 -1.661,-0.125 -2.371,-0.378c-1.122,0.641 -1.683,1.431 -1.683,2.371c0,1.397 1.065,2.096 3.196,2.096l2.954,0c1.695,0 3.024,0.395 3.986,1.185c0.962,0.79 1.444,1.826 1.444,3.109c0,1.581 -0.608,2.801 -1.822,3.661c-1.214,0.858 -3.035,1.288 -5.463,1.288c-2.566,0 -4.421,-0.384 -5.567,-1.152c-1.145,-0.767 -1.718,-2.021 -1.718,-3.761l1.134,0c0.023,0.961 0.235,1.717 0.636,2.267c0.4,0.55 1.036,0.95 1.907,1.202c0.87,0.252 2.073,0.378 3.608,0.378c4.054,0 6.082,-1.271 6.082,-3.813c0,-1.031 -0.378,-1.839 -1.134,-2.423c-0.756,-0.584 -1.822,-0.876 -3.196,-0.876l-2.955,0c-1.351,0 -2.405,-0.275 -3.161,-0.824c-0.756,-0.55 -1.134,-1.26 -1.134,-2.131c0,-1.168 0.665,-2.153 1.994,-2.955c-2.017,-1.03 -3.025,-2.738 -3.025,-5.119c0,-1.764 0.568,-3.191 1.701,-4.279c1.134,-1.088 2.674,-1.632 4.621,-1.632l1.204,0c1.832,0 3.155,-0.063 3.968,-0.189c0.813,-0.126 1.62,-0.338 2.422,-0.636l0.378,1.238Z" style="fill:#1f66aa;fill-rule:nonzero;"/><path d="M212.573,87.29c0,-2.176 -0.452,-3.894 -1.357,-5.153c-0.906,-1.26 -2.274,-1.891 -4.106,-1.891c-1.627,0 -2.978,0.659 -4.055,1.977c-1.077,1.317 -1.649,3.269 -1.718,5.858l11.236,0l0,-0.791Zm1.1,1.787l-12.336,0c0.091,2.543 0.687,4.449 1.787,5.721c1.099,1.271 2.543,1.907 4.329,1.907c0.963,0 1.809,-0.148 2.543,-0.446c0.733,-0.298 1.534,-0.779 2.405,-1.444l0.618,0.825c-0.824,0.711 -1.683,1.243 -2.576,1.597c-0.893,0.356 -1.891,0.533 -2.99,0.533c-2.268,0 -4.06,-0.807 -5.377,-2.422c-1.317,-1.615 -1.976,-3.854 -1.976,-6.717c0,-1.925 0.286,-3.597 0.859,-5.017c0.572,-1.421 1.38,-2.513 2.423,-3.282c1.042,-0.767 2.261,-1.15 3.659,-1.15c2.199,0 3.866,0.761 5,2.284c1.134,1.524 1.7,3.602 1.7,6.237c0,0.504 -0.022,0.962 -0.068,1.374" style="fill:#1f66aa;fill-rule:nonzero;"/><path d="M219.91,95.88c0.194,0.206 0.292,0.47 0.292,0.79c0,0.344 -0.138,0.836 -0.412,1.478l-1.65,4.123l-0.893,0l1.374,-4.605c-0.206,-0.092 -0.366,-0.223 -0.481,-0.394c-0.115,-0.172 -0.171,-0.372 -0.171,-0.602c0,-0.32 0.108,-0.584 0.326,-0.79c0.218,-0.206 0.486,-0.31 0.807,-0.31c0.344,0 0.613,0.104 0.808,0.31" style="fill:#1f66aa;fill-rule:nonzero;"/><path d="M248.102,97.426l-1.031,0l-0.034,-3.471c-0.642,1.146 -1.466,2.068 -2.474,2.767c-1.009,0.699 -2.199,1.048 -3.573,1.048c-1.627,0 -2.881,-0.47 -3.763,-1.409c-0.882,-0.939 -1.323,-2.29 -1.323,-4.055l0,-12.747l1.168,0l0,12.644c0,3.001 1.363,4.501 4.09,4.501c1.236,0 2.319,-0.354 3.247,-1.065c0.927,-0.709 1.769,-1.706 2.525,-2.989l0,-13.091l1.168,0l0,17.867Z" style="fill:#1f66aa;fill-rule:nonzero;"/><path d="M267.052,80.607c0.812,0.95 1.22,2.308 1.22,4.071l0,12.748l-1.169,0l0,-12.576c0,-1.58 -0.315,-2.749 -0.945,-3.505c-0.63,-0.756 -1.575,-1.134 -2.835,-1.134c-1.283,0 -2.417,0.35 -3.401,1.048c-0.985,0.7 -1.936,1.713 -2.852,3.041l0,13.126l-1.168,0l0,-17.867l0.996,0l0.137,3.333c1.742,-2.474 3.871,-3.711 6.392,-3.711c1.603,0 2.812,0.476 3.625,1.426" style="fill:#1f66aa;fill-rule:nonzero;"/><path d="M296.326,94.557c0.95,-1.432 1.427,-3.499 1.427,-6.202c0,-2.68 -0.448,-4.701 -1.341,-6.065c-0.893,-1.362 -2.199,-2.045 -3.917,-2.045c-1.191,0 -2.211,0.282 -3.058,0.842c-0.847,0.562 -1.673,1.381 -2.474,2.457l0,10.068c1.397,2.062 3.161,3.092 5.292,3.092c1.763,0 3.121,-0.715 4.071,-2.147m0.979,-13.006c1.1,1.581 1.65,3.849 1.65,6.804c0,2.955 -0.573,5.263 -1.718,6.924c-1.145,1.661 -2.783,2.491 -4.914,2.491c-1.168,0 -2.216,-0.264 -3.143,-0.79c-0.928,-0.527 -1.679,-1.203 -2.251,-2.027l-0.138,2.473l-0.996,0l0,-25.221l1.168,-0.171l0,10.17c0.687,-0.939 1.5,-1.677 2.44,-2.215c0.939,-0.538 1.992,-0.808 3.161,-0.808c2.062,0 3.642,0.79 4.741,2.37" style="fill:#1f66aa;fill-rule:nonzero;"/><path d="M306.616,97.426l-1.168,0l0,-17.867l1.168,0l0,17.867Zm0.121,-24.945c0.171,0.184 0.257,0.4 0.257,0.652c0,0.276 -0.086,0.504 -0.257,0.688c-0.172,0.183 -0.419,0.274 -0.739,0.274c-0.274,0 -0.504,-0.091 -0.687,-0.274c-0.184,-0.184 -0.275,-0.412 -0.275,-0.688c0,-0.252 0.091,-0.468 0.275,-0.652c0.183,-0.184 0.413,-0.275 0.687,-0.275c0.32,0 0.567,0.091 0.739,0.275" style="fill:#1f66aa;fill-rule:nonzero;"/><path d="M325.343,87.29c0,-2.176 -0.452,-3.894 -1.357,-5.153c-0.906,-1.26 -2.274,-1.891 -4.106,-1.891c-1.627,0 -2.978,0.659 -4.055,1.977c-1.077,1.317 -1.649,3.269 -1.718,5.858l11.236,0l0,-0.791Zm1.1,1.787l-12.336,0c0.091,2.543 0.687,4.449 1.787,5.721c1.099,1.271 2.543,1.907 4.329,1.907c0.963,0 1.809,-0.148 2.543,-0.446c0.733,-0.298 1.534,-0.779 2.405,-1.444l0.618,0.825c-0.824,0.711 -1.683,1.243 -2.576,1.597c-0.893,0.356 -1.891,0.533 -2.99,0.533c-2.268,0 -4.06,-0.807 -5.377,-2.422c-1.317,-1.615 -1.976,-3.854 -1.976,-6.717c0,-1.925 0.286,-3.597 0.859,-5.017c0.572,-1.421 1.38,-2.513 2.423,-3.282c1.042,-0.767 2.261,-1.15 3.659,-1.15c2.199,0 3.866,0.761 5,2.284c1.134,1.524 1.7,3.602 1.7,6.237c0,0.504 -0.022,0.962 -0.068,1.374" style="fill:#1f66aa;fill-rule:nonzero;"/><path d="M343.777,80.607c0.812,0.95 1.22,2.308 1.22,4.071l0,12.748l-1.169,0l0,-12.576c0,-1.58 -0.315,-2.749 -0.945,-3.505c-0.63,-0.756 -1.575,-1.134 -2.835,-1.134c-1.283,0 -2.417,0.35 -3.401,1.048c-0.985,0.7 -1.936,1.713 -2.852,3.041l0,13.126l-1.168,0l0,-17.867l0.996,0l0.137,3.333c1.742,-2.474 3.871,-3.711 6.392,-3.711c1.603,0 2.812,0.476 3.625,1.426" style="fill:#1f66aa;fill-rule:nonzero;"/><path d="M370.938,79.593c0.733,0.274 1.466,0.722 2.199,1.34l-0.651,0.79c-0.551,-0.481 -1.152,-0.842 -1.804,-1.082c-0.654,-0.24 -1.416,-0.361 -2.286,-0.361c-1.833,0 -3.322,0.716 -4.467,2.148c-1.145,1.432 -1.719,3.487 -1.719,6.167c0,2.611 0.568,4.616 1.702,6.014c1.133,1.397 2.617,2.095 4.45,2.095c1.602,0 3.034,-0.538 4.296,-1.615l0.651,0.825c-1.397,1.238 -3.023,1.856 -4.879,1.856c-1.488,0 -2.795,-0.362 -3.916,-1.082c-1.124,-0.722 -1.994,-1.771 -2.611,-3.145c-0.62,-1.374 -0.929,-3.023 -0.929,-4.948c0,-1.9 0.303,-3.562 0.91,-4.981c0.607,-1.421 1.472,-2.514 2.595,-3.283c1.122,-0.766 2.416,-1.15 3.883,-1.15c0.984,0 1.844,0.137 2.576,0.412" style="fill:#1f66aa;fill-rule:nonzero;"/><path d="M379.392,82.376c-1.077,1.421 -1.615,3.471 -1.615,6.15c0,2.612 0.533,4.627 1.598,6.048c1.065,1.42 2.548,2.13 4.45,2.13c1.878,0 3.361,-0.71 4.45,-2.13c1.087,-1.421 1.632,-3.47 1.632,-6.151c0,-2.634 -0.534,-4.655 -1.598,-6.065c-1.065,-1.408 -2.549,-2.113 -4.45,-2.113c-1.902,0 -3.391,0.711 -4.467,2.131m9.793,-0.79c1.282,1.603 1.924,3.883 1.924,6.837c0,2.932 -0.653,5.224 -1.958,6.873c-1.306,1.648 -3.081,2.474 -5.326,2.474c-2.268,0 -4.049,-0.82 -5.343,-2.457c-1.295,-1.638 -1.942,-3.9 -1.942,-6.787c0,-2.931 0.659,-5.222 1.976,-6.872c1.317,-1.649 3.098,-2.473 5.343,-2.473c2.267,0 4.043,0.801 5.326,2.405" style="fill:#1f66aa;fill-rule:nonzero;"/><path d="M417.755,80.641c0.791,0.974 1.186,2.319 1.186,4.037l0,12.748l-1.168,0l0,-12.576c0,-1.534 -0.292,-2.691 -0.876,-3.47c-0.584,-0.779 -1.426,-1.169 -2.526,-1.169c-2.085,0 -3.964,1.364 -5.636,4.089l0,13.126l-1.168,0l0,-12.576c0,-1.534 -0.291,-2.691 -0.875,-3.47c-0.584,-0.779 -1.426,-1.169 -2.526,-1.169c-2.108,0 -3.974,1.364 -5.601,4.089l0,13.126l-1.168,0l0,-17.867l0.996,0l0.137,3.298c0.734,-1.122 1.592,-2.015 2.578,-2.68c0.984,-0.664 2.027,-0.996 3.126,-0.996c1.168,0 2.13,0.332 2.887,0.996c0.756,0.665 1.248,1.615 1.477,2.852c0.757,-1.191 1.637,-2.13 2.646,-2.818c1.008,-0.687 2.073,-1.03 3.196,-1.03c1.419,0 2.525,0.486 3.315,1.46" style="fill:#1f66aa;fill-rule:nonzero;"/><path d="M446.961,80.641c0.791,0.974 1.186,2.319 1.186,4.037l0,12.748l-1.168,0l0,-12.576c0,-1.534 -0.292,-2.691 -0.876,-3.47c-0.584,-0.779 -1.426,-1.169 -2.526,-1.169c-2.085,0 -3.964,1.364 -5.636,4.089l0,13.126l-1.168,0l0,-12.576c0,-1.534 -0.291,-2.691 -0.875,-3.47c-0.584,-0.779 -1.426,-1.169 -2.526,-1.169c-2.108,0 -3.974,1.364 -5.601,4.089l0,13.126l-1.168,0l0,-17.867l0.996,0l0.137,3.298c0.734,-1.122 1.592,-2.015 2.578,-2.68c0.984,-0.664 2.027,-0.996 3.126,-0.996c1.168,0 2.13,0.332 2.887,0.996c0.756,0.665 1.248,1.615 1.477,2.852c0.757,-1.191 1.637,-2.13 2.646,-2.818c1.008,-0.687 2.073,-1.03 3.196,-1.03c1.419,0 2.525,0.486 3.315,1.46" style="fill:#1f66aa;fill-rule:nonzero;"/><path d="M467.835,97.426l-1.031,0l-0.034,-3.471c-0.642,1.146 -1.466,2.068 -2.474,2.767c-1.009,0.699 -2.199,1.048 -3.573,1.048c-1.627,0 -2.881,-0.47 -3.763,-1.409c-0.882,-0.939 -1.323,-2.29 -1.323,-4.055l0,-12.747l1.168,0l0,12.644c0,3.001 1.363,4.501 4.09,4.501c1.236,0 2.319,-0.354 3.247,-1.065c0.927,-0.709 1.769,-1.706 2.525,-2.989l0,-13.091l1.168,0l0,17.867Z" style="fill:#1f66aa;fill-rule:nonzero;"/><path d="M486.785,80.607c0.812,0.95 1.22,2.308 1.22,4.071l0,12.748l-1.169,0l0,-12.576c0,-1.58 -0.315,-2.749 -0.945,-3.505c-0.63,-0.756 -1.575,-1.134 -2.835,-1.134c-1.283,0 -2.417,0.35 -3.401,1.048c-0.985,0.7 -1.936,1.713 -2.852,3.041l0,13.126l-1.168,0l0,-17.867l0.996,0l0.137,3.333c1.742,-2.474 3.871,-3.711 6.392,-3.711c1.603,0 2.812,0.476 3.625,1.426" style="fill:#1f66aa;fill-rule:nonzero;"/><rect x="0" y="53.824" width="228.333" height="8.667" style="fill:#f26e25;fill-rule:nonzero;"/><rect x="267.333" y="53.824" width="220" height="8.667" style="fill:#f26e25;fill-rule:nonzero;"/></svg>