<svg viewBox="0 0 540 140" xmlns="http://www.w3.org/2000/svg" xmlns:xlink="http://www.w3.org/1999/xlink"><title>Covoiturage libre, un bien commun</title><defs><path id="a" d="M0 104.298h488.005V0H0z"/></defs><g transform="translate(25 17)" fill="none" fill-rule="evenodd"><path d="M19.817 15.328c1.611.586 3.132 1.483 4.56 2.692l-3.736 5.164c-1.832-1.39-3.68-2.087-5.549-2.087-1.942 0-3.406.714-4.395 2.142-.989 1.43-1.484 3.736-1.484 6.922 0 3.077.495 5.257 1.484 6.54.99 1.281 2.417 1.921 4.286 1.921.988 0 1.885-.155 2.691-.466.806-.31 1.777-.815 2.913-1.512l3.79 5.385c-2.893 2.307-6.172 3.461-9.834 3.461-2.967 0-5.53-.632-7.692-1.895-2.16-1.264-3.827-3.04-4.999-5.33C.68 35.977.094 33.293.094 30.217c0-3.077.585-5.805 1.758-8.186 1.172-2.38 2.838-4.24 5-5.577 2.16-1.336 4.67-2.005 7.526-2.005 2.014 0 3.827.294 5.44.88zM36.19 23.047c-.88 1.483-1.32 3.783-1.32 6.895 0 3.187.43 5.513 1.293 6.978.86 1.465 2.188 2.197 3.983 2.197 1.758 0 3.075-.741 3.954-2.225.88-1.483 1.32-3.782 1.32-6.895 0-3.186-.431-5.512-1.291-6.977-.861-1.465-2.19-2.198-3.983-2.198-1.758 0-3.078.742-3.956 2.225m14.449-4.505c2.527 2.729 3.79 6.547 3.79 11.455 0 3.113-.577 5.833-1.73 8.159-1.154 2.326-2.801 4.13-4.944 5.412-2.144 1.281-4.68 1.922-7.61 1.922-4.433 0-7.92-1.364-10.466-4.093-2.546-2.728-3.819-6.546-3.819-11.455 0-3.112.578-5.832 1.732-8.159 1.154-2.325 2.802-4.129 4.944-5.411s4.678-1.923 7.61-1.923c4.468 0 7.965 1.365 10.492 4.093M74.043 44.556H63.77l-9.393-29.173h9.449l5.165 22.58 5.384-22.58h8.845zM94.426 23.047c-.88 1.483-1.32 3.783-1.32 6.895 0 3.187.43 5.513 1.293 6.978.859 1.465 2.187 2.197 3.983 2.197 1.758 0 3.076-.741 3.955-2.225.879-1.483 1.318-3.782 1.318-6.895 0-3.186-.43-5.512-1.291-6.977-.86-1.465-2.188-2.198-3.982-2.198-1.76 0-3.077.742-3.956 2.225m14.449-4.505c2.528 2.729 3.79 6.547 3.79 11.455 0 3.113-.576 5.833-1.73 8.159-1.154 2.326-2.802 4.13-4.945 5.412-2.142 1.281-4.678 1.922-7.608 1.922-4.433 0-7.921-1.364-10.466-4.093-2.547-2.728-3.82-6.546-3.82-11.455 0-3.112.578-5.832 1.732-8.159 1.154-2.325 2.802-4.129 4.944-5.411 2.143-1.282 4.679-1.923 7.61-1.923 4.468 0 7.966 1.365 10.493 4.093" fill="#F26E24"/><mask id="b" fill="#fff"><use xlink:href="#a"/></mask><path d="M117.83 44.556h8.681V15.383h-8.681v29.173zm7.994-43.155c.97.934 1.456 2.115 1.456 3.543 0 1.429-.486 2.61-1.456 3.544-.971.934-2.207 1.401-3.709 1.401-1.502 0-2.728-.467-3.68-1.401-.954-.934-1.429-2.115-1.429-3.544 0-1.428.475-2.609 1.429-3.543.952-.934 2.178-1.401 3.68-1.401 1.502 0 2.738.467 3.709 1.401zM151.618 43.183c-1.062.733-2.299 1.3-3.708 1.703a15.248 15.248 0 0 1-4.203.605c-6.373-.037-9.56-3.553-9.56-10.55V21.428h-4.12v-6.044h4.12V9.065l8.681-.99v7.308h6.702l-.933 6.044h-5.769v13.405c0 1.355.22 2.327.66 2.912.44.586 1.134.879 2.087.879 1.024 0 2.068-.33 3.131-.99l2.912 5.55zM179.143 44.556h-7.526l-.385-3.68c-2.125 3.076-5.073 4.614-8.846 4.614-2.674 0-4.697-.806-6.071-2.417-1.373-1.612-2.06-3.864-2.06-6.758V15.383h8.68v19.833c0 1.428.229 2.427.687 2.994.458.57 1.163.852 2.116.852 1.83 0 3.406-1.135 4.724-3.406V15.383h8.68v29.173zM204.69 14.944l-1.374 8.405c-1.099-.256-1.978-.384-2.637-.384-1.685 0-2.986.585-3.9 1.758-.916 1.172-1.63 2.93-2.143 5.274v14.56h-8.68V15.381h7.582l.713 5.604c.66-2.012 1.657-3.588 2.994-4.724 1.338-1.135 2.847-1.704 4.534-1.704 1.06 0 2.031.13 2.91.386M219.55 38.568c.788-.476 1.457-1.154 2.006-2.033v-5.219h-2.143c-1.977 0-3.452.348-4.423 1.044-.97.696-1.456 1.776-1.456 3.241 0 1.173.303 2.079.908 2.719.603.642 1.436.962 2.499.962.952 0 1.822-.238 2.61-.714m10.987-.055c.312.513.816.898 1.512 1.154l-1.813 5.658c-1.795-.146-3.251-.531-4.37-1.153-1.116-.623-2.004-1.629-2.663-3.022-1.905 2.894-4.835 4.34-8.791 4.34-2.893 0-5.201-.843-6.922-2.527-1.721-1.684-2.582-3.882-2.582-6.593 0-3.186 1.172-5.622 3.516-7.307 2.344-1.684 5.732-2.527 10.164-2.527h2.967v-1.264c0-1.721-.366-2.902-1.1-3.543-.732-.641-2.013-.962-3.844-.962-.954 0-2.107.137-3.461.412a35.833 35.833 0 0 0-4.176 1.126l-1.978-5.713a33.48 33.48 0 0 1 5.63-1.593c1.924-.366 3.71-.55 5.358-.55 4.175 0 7.233.861 9.175 2.582 1.94 1.722 2.912 4.305 2.912 7.747v11.317c0 1.099.155 1.905.466 2.418M245.097 21.454c-.788.86-1.181 2.042-1.181 3.544 0 1.575.393 2.793 1.18 3.653.788.862 1.859 1.29 3.215 1.29 1.429 0 2.518-.42 3.269-1.262.75-.842 1.126-2.106 1.126-3.791 0-3.15-1.464-4.725-4.395-4.725-1.356 0-2.427.43-3.214 1.29zm18.763-4.368c-1.906.769-4.707 1.154-8.407 1.154 1.905.806 3.297 1.795 4.176 2.967.879 1.173 1.319 2.692 1.319 4.56 0 1.868-.495 3.543-1.484 5.027-.99 1.483-2.41 2.647-4.258 3.489-1.85.843-4.02 1.263-6.51 1.263-1.173 0-2.29-.11-3.352-.33a1.563 1.563 0 0 0-.686.687 2.033 2.033 0 0 0-.248.962c0 .549.21.98.632 1.29.42.313 1.273.468 2.555.468h4.396c2.233 0 4.193.367 5.877 1.099 1.685.733 2.986 1.74 3.902 3.022.915 1.282 1.373 2.728 1.373 4.34 0 3.039-1.31 5.412-3.928 7.115-2.62 1.703-6.4 2.554-11.346 2.554-3.552 0-6.354-.377-8.405-1.127-2.052-.75-3.49-1.804-4.313-3.158-.825-1.355-1.236-3.06-1.236-5.11h7.8c0 .88.175 1.575.524 2.088.347.513.979.897 1.895 1.153.915.256 2.233.385 3.955.385 2.38 0 4.029-.283 4.945-.851.915-.568 1.374-1.383 1.374-2.445 0-.88-.35-1.575-1.044-2.088-.697-.513-1.741-.77-3.132-.77h-4.231c-3.003 0-5.246-.54-6.73-1.62-1.483-1.08-2.225-2.463-2.225-4.148 0-1.062.312-2.096.935-3.104.622-1.006 1.464-1.84 2.527-2.5-1.832-.988-3.16-2.15-3.983-3.488-.825-1.337-1.237-2.957-1.237-4.862 0-3.26 1.172-5.851 3.517-7.774 2.343-1.923 5.438-2.885 9.284-2.885 2.93.074 5.412-.22 7.444-.88 2.034-.658 4.13-1.628 6.29-2.91l2.035 6.427zM283.638 26.92c-.074-4.467-1.648-6.702-4.726-6.702-1.502 0-2.655.54-3.461 1.62-.805 1.082-1.318 2.904-1.538 5.468h9.725v-.385zm8.35 5.605h-18.02c.256 2.454.935 4.175 2.033 5.164 1.099.989 2.618 1.483 4.56 1.483a9.42 9.42 0 0 0 3.406-.631c1.099-.421 2.289-1.072 3.57-1.951l3.573 4.835c-3.407 2.71-7.198 4.066-11.373 4.066-4.725 0-8.351-1.392-10.878-4.176-2.528-2.783-3.791-6.52-3.791-11.207 0-2.967.53-5.632 1.593-7.994 1.062-2.363 2.619-4.231 4.67-5.604 2.05-1.374 4.505-2.061 7.362-2.061 4.212 0 7.508 1.319 9.889 3.956 2.38 2.638 3.572 6.3 3.572 10.988 0 1.209-.055 2.253-.165 3.132zM296.163 30.711h17.526v-6.703h-17.526zM321.353 43.32c-1.41-1.446-2.115-3.506-2.115-6.181V3.791l8.68-.934V36.81c0 1.208.495 1.813 1.484 1.813.512 0 .988-.091 1.428-.275l1.704 6.153c-1.577.66-3.334.989-5.274.989-2.527 0-4.498-.723-5.906-2.17M335.83 44.556h8.681V15.383h-8.681v29.173zm7.994-43.155c.97.934 1.456 2.115 1.456 3.543 0 1.429-.486 2.61-1.456 3.544-.971.934-2.207 1.401-3.709 1.401-1.502 0-2.728-.467-3.68-1.401-.954-.934-1.429-2.115-1.429-3.544 0-1.428.475-2.609 1.429-3.543.952-.934 2.178-1.401 3.68-1.401 1.502 0 2.738.467 3.709 1.401zM369.672 29.997c0-3.442-.403-5.833-1.208-7.17-.807-1.336-1.96-2.005-3.462-2.005-1.977 0-3.644 1.135-5 3.406v12.087c1.173 1.905 2.71 2.857 4.616 2.857 3.369 0 5.054-3.058 5.054-9.175m6.182-11.482c1.885 2.711 2.829 6.537 2.829 11.482 0 3.003-.467 5.678-1.402 8.021-.933 2.345-2.271 4.176-4.01 5.494-1.74 1.32-3.8 1.978-6.181 1.978-1.612 0-3.067-.32-4.367-.96a8.815 8.815 0 0 1-3.27-2.776l-.44 2.802h-7.691V3.79l8.68-.934V18.35c.843-1.172 1.96-2.116 3.353-2.83 1.39-.714 2.838-1.07 4.339-1.07 3.553 0 6.272 1.354 8.16 4.065M402.856 14.944l-1.373 8.405c-1.1-.256-1.98-.384-2.639-.384-1.683 0-2.984.585-3.9 1.758-.916 1.172-1.63 2.93-2.143 5.274v14.56h-8.68V15.381h7.583l.714 5.604c.659-2.012 1.656-3.588 2.993-4.724 1.337-1.135 2.848-1.704 4.534-1.704 1.06 0 2.031.13 2.91.386M422.524 26.92c-.074-4.467-1.648-6.702-4.726-6.702-1.502 0-2.655.54-3.46 1.62-.806 1.082-1.319 2.904-1.539 5.468h9.725v-.385zm8.351 5.605h-18.02c.255 2.454.934 4.175 2.032 5.164 1.1.989 2.618 1.483 4.56 1.483a9.42 9.42 0 0 0 3.406-.631c1.1-.421 2.29-1.072 3.571-1.951l3.572 4.835c-3.407 2.71-7.198 4.066-11.373 4.066-4.725 0-8.35-1.392-10.878-4.176-2.528-2.783-3.79-6.52-3.79-11.207 0-2.967.53-5.632 1.592-7.994 1.062-2.363 2.62-4.231 4.67-5.604 2.051-1.374 4.505-2.061 7.362-2.061 4.212 0 7.508 1.319 9.89 3.956 2.38 2.638 3.571 6.3 3.571 10.988 0 1.209-.055 2.253-.165 3.132zM442.713 37.002c.97.971 1.456 2.134 1.456 3.49 0 1.391-.485 2.572-1.456 3.542-.971.97-2.134 1.456-3.488 1.456-1.393 0-2.574-.486-3.544-1.456-.971-.97-1.455-2.15-1.455-3.543 0-1.355.484-2.518 1.455-3.489.97-.97 2.15-1.456 3.544-1.456 1.354 0 2.517.486 3.488 1.456M459.882 10.164c-.55.586-.824 1.575-.824 2.967v2.252h6.868l-.935 6.044h-5.933v23.13h-8.681v-23.13h-4.394v-6.044h4.394V12.8c0-2.93.962-5.32 2.885-7.17 1.923-1.85 4.679-2.774 8.268-2.774 2.893 0 5.549.623 7.967 1.868l-2.363 5.659c-1.465-.733-2.985-1.1-4.56-1.1-1.246 0-2.142.295-2.692.88M487.516 14.944l-1.373 8.405c-1.1-.256-1.98-.384-2.638-.384-1.684 0-2.985.585-3.9 1.758-.916 1.172-1.63 2.93-2.143 5.274v14.56h-8.68V15.381h7.582l.714 5.604c.659-2.012 1.657-3.588 2.994-4.724 1.337-1.135 2.847-1.704 4.533-1.704 1.06 0 2.032.13 2.91.386" fill="#F26E24" mask="url(#b)"/><path fill="#2265A9" mask="url(#b)" class="logo-title-baseline" d="M3.628 96.292h9.896l-.206 1.134H2.425V73.992h1.203zM29.055 87.29c0-2.177-.453-3.895-1.357-5.154-.905-1.26-2.274-1.89-4.106-1.89-1.627 0-2.978.658-4.055 1.976-1.077 1.317-1.65 3.27-1.718 5.858h11.236v-.79zm1.1 1.786H17.819c.09 2.543.687 4.45 1.787 5.721 1.099 1.271 2.543 1.907 4.329 1.907.962 0 1.809-.148 2.543-.446.733-.298 1.535-.779 2.405-1.444l.619.825c-.825.711-1.684 1.243-2.577 1.597-.894.356-1.89.533-2.99.533-2.268 0-4.06-.807-5.377-2.422-1.317-1.615-1.976-3.854-1.976-6.717 0-1.925.286-3.597.859-5.017.572-1.42 1.38-2.513 2.423-3.282 1.042-.767 2.26-1.15 3.659-1.15 2.199 0 3.865.761 4.999 2.284 1.135 1.524 1.7 3.602 1.7 6.237 0 .504-.022.962-.067 1.374zM54.653 79.593c.733.274 1.466.722 2.2 1.34l-.654.79a5.717 5.717 0 0 0-1.804-1.082c-.653-.24-1.414-.361-2.284-.361-1.833 0-3.322.716-4.468 2.148-1.145 1.432-1.718 3.487-1.718 6.167 0 2.61.567 4.616 1.701 6.014 1.134 1.397 2.617 2.095 4.45 2.095 1.603 0 3.035-.538 4.295-1.615l.653.825C55.626 97.152 54 97.77 52.145 97.77c-1.49 0-2.795-.362-3.917-1.082-1.123-.722-1.993-1.771-2.612-3.145-.618-1.374-.927-3.023-.927-4.948 0-1.9.303-3.562.91-4.981.607-1.421 1.471-2.514 2.594-3.283 1.122-.766 2.417-1.15 3.883-1.15.985 0 1.844.137 2.577.412M63.106 82.376c-1.077 1.421-1.615 3.471-1.615 6.15 0 2.612.533 4.627 1.598 6.048 1.065 1.42 2.548 2.13 4.45 2.13 1.878 0 3.361-.71 4.449-2.13 1.088-1.42 1.633-3.47 1.633-6.15 0-2.635-.533-4.656-1.598-6.066-1.065-1.408-2.549-2.113-4.45-2.113-1.902 0-3.39.711-4.467 2.131m9.793-.79c1.283 1.603 1.924 3.883 1.924 6.837 0 2.932-.653 5.224-1.958 6.873-1.306 1.648-3.082 2.474-5.326 2.474-2.268 0-4.05-.82-5.344-2.457-1.294-1.638-1.941-3.9-1.941-6.787 0-2.93.659-5.222 1.976-6.872 1.317-1.649 3.098-2.473 5.343-2.473 2.268 0 4.043.801 5.326 2.405M85.234 97.426h-1.512L77.16 79.559h1.34l5.945 16.836 5.738-16.836h1.271zM97.02 82.376c-1.076 1.421-1.614 3.471-1.614 6.15 0 2.612.531 4.627 1.597 6.048 1.066 1.42 2.547 2.13 4.45 2.13 1.877 0 3.361-.71 4.45-2.13 1.087-1.42 1.632-3.47 1.632-6.15 0-2.635-.534-4.656-1.597-6.066-1.067-1.408-2.55-2.113-4.451-2.113-1.901 0-3.391.711-4.468 2.131m9.793-.79c1.284 1.603 1.925 3.883 1.925 6.837 0 2.932-.653 5.224-1.957 6.873-1.308 1.648-3.082 2.474-5.326 2.474-2.268 0-4.05-.82-5.344-2.457-1.294-1.638-1.942-3.9-1.942-6.787 0-2.93.658-5.222 1.976-6.872 1.316-1.649 3.099-2.473 5.343-2.473 2.267 0 4.043.801 5.326 2.405M115.024 97.426h1.168V79.559h-1.168v17.867zm1.289-24.945c.171.183.257.4.257.652a.968.968 0 0 1-.257.687c-.171.184-.418.275-.739.275a.93.93 0 0 1-.687-.275.929.929 0 0 1-.275-.687c0-.252.091-.469.275-.652a.93.93 0 0 1 .687-.276c.321 0 .568.092.739.276zM131.482 96.738a6.676 6.676 0 0 1-3.607 1.031c-1.26 0-2.25-.378-2.972-1.134-.722-.755-1.083-1.855-1.083-3.298V80.554h-2.92v-.996h2.92v-4.466l1.168-.104v4.57h4.88l-.172.996h-4.708v12.714c0 2.29.997 3.436 2.99 3.436 1.008 0 2.004-.286 2.99-.86l.514.894zM147.254 97.426h-1.031l-.034-3.471c-.642 1.146-1.466 2.068-2.474 2.767-1.01.699-2.2 1.048-3.573 1.048-1.627 0-2.881-.47-3.763-1.41-.882-.938-1.323-2.29-1.323-4.054V79.559h1.168v12.644c0 3 1.363 4.5 4.09 4.5 1.236 0 2.319-.353 3.247-1.064.927-.71 1.769-1.706 2.525-2.99V79.56h1.168v17.867zM163.163 79.387l-.24 1.064c-.436-.136-.963-.206-1.58-.206-1.284 0-2.32.464-3.11 1.392-.792.928-1.462 2.4-2.01 4.416v11.373h-1.169V79.559h.996l.07 4.26c.48-1.557 1.145-2.72 1.992-3.488.847-.766 1.936-1.15 3.264-1.15.641 0 1.237.068 1.787.206M176.151 93.2v-5.43h-3.677c-1.924 0-3.419.396-4.483 1.186-1.066.79-1.598 1.953-1.598 3.487 0 1.352.378 2.401 1.134 3.145.756.744 1.798 1.116 3.126 1.116 2.43 0 4.261-1.168 5.498-3.505m1.512 2.731c.228.448.62.786 1.17 1.014l-.277.825c-.733-.206-1.283-.56-1.649-1.065-.366-.504-.562-1.225-.584-2.165-1.329 2.154-3.24 3.23-5.738 3.23-1.696 0-3.024-.48-3.986-1.443-.963-.962-1.443-2.245-1.443-3.849 0-1.832.636-3.24 1.907-4.225 1.271-.986 2.994-1.478 5.171-1.478h3.917v-1.993c0-1.558-.332-2.703-.996-3.436-.665-.733-1.81-1.1-3.437-1.1-1.374 0-3 .367-4.879 1.1l-.309-.962c1.901-.802 3.653-1.203 5.258-1.203 1.9 0 3.298.458 4.191 1.374.894.917 1.34 2.291 1.34 4.124v8.933c0 1.1.115 1.873.344 2.32M185.807 81.534c-.871.882-1.306 2.067-1.306 3.557 0 1.557.469 2.76 1.409 3.607.939.848 2.165 1.272 3.676 1.272 1.604 0 2.84-.418 3.71-1.254.87-.836 1.307-2.01 1.307-3.523 0-1.512-.418-2.72-1.254-3.625-.837-.904-2.08-1.357-3.73-1.357-1.67 0-2.942.441-3.812 1.323zm11.785-1.94c-1.076.296-2.657.457-4.741.48 1.97.984 2.955 2.691 2.955 5.12 0 1.74-.556 3.138-1.667 4.192-1.111 1.053-2.628 1.58-4.553 1.58-.871 0-1.661-.125-2.371-.378-1.122.641-1.683 1.431-1.683 2.371 0 1.397 1.065 2.096 3.196 2.096h2.954c1.695 0 3.024.395 3.986 1.185.962.79 1.444 1.826 1.444 3.11 0 1.58-.608 2.8-1.822 3.66-1.214.858-3.035 1.288-5.463 1.288-2.566 0-4.421-.384-5.567-1.152-1.145-.767-1.718-2.02-1.718-3.76h1.134c.023.96.235 1.716.636 2.266.4.55 1.036.95 1.907 1.202.87.252 2.073.378 3.608.378 4.054 0 6.082-1.27 6.082-3.813 0-1.03-.378-1.839-1.134-2.423-.756-.584-1.822-.876-3.196-.876h-2.955c-1.351 0-2.405-.275-3.161-.824-.756-.55-1.134-1.26-1.134-2.13 0-1.169.665-2.154 1.994-2.956-2.017-1.03-3.025-2.738-3.025-5.119 0-1.764.568-3.19 1.7-4.279 1.135-1.088 2.675-1.632 4.622-1.632h1.204c1.832 0 3.155-.063 3.968-.189.813-.126 1.62-.338 2.422-.636l.378 1.238zM212.573 87.29c0-2.177-.452-3.895-1.357-5.154-.906-1.26-2.274-1.89-4.106-1.89-1.627 0-2.978.658-4.055 1.976-1.077 1.317-1.649 3.27-1.718 5.858h11.236v-.79zm1.1 1.786h-12.336c.091 2.543.687 4.45 1.787 5.721 1.1 1.271 2.543 1.907 4.33 1.907.962 0 1.808-.148 2.542-.446.733-.298 1.534-.779 2.405-1.444l.618.825c-.824.711-1.683 1.243-2.576 1.597-.893.356-1.89.533-2.99.533-2.268 0-4.06-.807-5.377-2.422-1.317-1.615-1.976-3.854-1.976-6.717 0-1.925.286-3.597.86-5.017.571-1.42 1.38-2.513 2.422-3.282 1.042-.767 2.261-1.15 3.66-1.15 2.198 0 3.865.761 5 2.284 1.133 1.524 1.7 3.602 1.7 6.237 0 .504-.023.962-.069 1.374zM219.91 95.88c.194.206.292.47.292.79 0 .344-.138.836-.412 1.478l-1.65 4.123h-.893l1.374-4.605a1.107 1.107 0 0 1-.48-.394 1.055 1.055 0 0 1-.172-.602c0-.32.108-.584.326-.79a1.13 1.13 0 0 1 .807-.31c.344 0 .613.104.808.31M248.102 97.426h-1.031l-.034-3.471c-.642 1.146-1.466 2.068-2.474 2.767-1.01.699-2.2 1.048-3.573 1.048-1.627 0-2.881-.47-3.763-1.41-.882-.938-1.323-2.29-1.323-4.054V79.559h1.168v12.644c0 3 1.363 4.5 4.09 4.5 1.236 0 2.319-.353 3.247-1.064.927-.71 1.769-1.706 2.525-2.99V79.56h1.168v17.867zM267.052 80.607c.812.95 1.22 2.308 1.22 4.07v12.749h-1.17V84.85c0-1.58-.314-2.75-.944-3.505-.63-.756-1.575-1.134-2.835-1.134-1.283 0-2.417.35-3.401 1.048-.985.7-1.936 1.713-2.852 3.04v13.127h-1.168V79.559h.996l.137 3.333c1.742-2.474 3.87-3.711 6.392-3.711 1.603 0 2.812.476 3.625 1.426M296.326 94.557c.95-1.432 1.427-3.5 1.427-6.202 0-2.68-.448-4.701-1.34-6.065-.894-1.362-2.2-2.045-3.918-2.045-1.19 0-2.21.282-3.058.842-.847.562-1.673 1.38-2.474 2.457v10.068c1.397 2.062 3.161 3.092 5.292 3.092 1.763 0 3.121-.715 4.071-2.147m.98-13.006c1.1 1.58 1.65 3.849 1.65 6.804s-.574 5.263-1.719 6.924c-1.145 1.66-2.783 2.49-4.914 2.49-1.168 0-2.216-.263-3.143-.79-.928-.526-1.679-1.202-2.25-2.026l-.139 2.473h-.996V72.205l1.168-.171v10.17c.687-.94 1.5-1.677 2.44-2.215.94-.538 1.992-.808 3.161-.808 2.062 0 3.642.79 4.741 2.37M305.448 97.426h1.168V79.559h-1.168v17.867zm1.289-24.945c.171.183.257.4.257.652a.968.968 0 0 1-.257.687c-.172.184-.419.275-.739.275a.93.93 0 0 1-.687-.275.929.929 0 0 1-.275-.687c0-.252.091-.469.275-.652a.93.93 0 0 1 .687-.276c.32 0 .567.092.739.276zM325.343 87.29c0-2.177-.452-3.895-1.357-5.154-.906-1.26-2.274-1.89-4.106-1.89-1.627 0-2.978.658-4.055 1.976-1.077 1.317-1.65 3.27-1.718 5.858h11.236v-.79zm1.1 1.786h-12.336c.09 2.543.687 4.45 1.787 5.721 1.099 1.271 2.543 1.907 4.329 1.907.963 0 1.809-.148 2.543-.446.733-.298 1.534-.779 2.405-1.444l.618.825c-.824.711-1.683 1.243-2.576 1.597-.893.356-1.891.533-2.99.533-2.268 0-4.06-.807-5.377-2.422-1.317-1.615-1.976-3.854-1.976-6.717 0-1.925.286-3.597.859-5.017.572-1.42 1.38-2.513 2.423-3.282 1.042-.767 2.26-1.15 3.659-1.15 2.199 0 3.866.761 5 2.284 1.134 1.524 1.7 3.602 1.7 6.237 0 .504-.022.962-.068 1.374zM343.777 80.607c.812.95 1.22 2.308 1.22 4.07v12.749h-1.169V84.85c0-1.58-.315-2.75-.945-3.505-.63-.756-1.575-1.134-2.835-1.134-1.283 0-2.417.35-3.4 1.048-.986.7-1.937 1.713-2.853 3.04v13.127h-1.168V79.559h.996l.137 3.333c1.742-2.474 3.871-3.711 6.392-3.711 1.603 0 2.812.476 3.625 1.426M370.938 79.593c.733.274 1.466.722 2.2 1.34l-.652.79a5.729 5.729 0 0 0-1.804-1.082c-.654-.24-1.416-.361-2.286-.361-1.833 0-3.322.716-4.466 2.148-1.146 1.432-1.72 3.487-1.72 6.167 0 2.61.569 4.616 1.703 6.014 1.132 1.397 2.616 2.095 4.45 2.095 1.601 0 3.034-.538 4.295-1.615l.651.825c-1.397 1.238-3.023 1.856-4.879 1.856-1.488 0-2.795-.362-3.916-1.082-1.124-.722-1.993-1.771-2.612-3.145-.618-1.374-.928-3.023-.928-4.948 0-1.9.303-3.562.91-4.981.607-1.421 1.472-2.514 2.595-3.283 1.123-.766 2.417-1.15 3.884-1.15.983 0 1.844.137 2.575.412M379.392 82.376c-1.077 1.421-1.615 3.471-1.615 6.15 0 2.612.533 4.627 1.598 6.048 1.065 1.42 2.548 2.13 4.45 2.13 1.878 0 3.36-.71 4.45-2.13 1.087-1.42 1.632-3.47 1.632-6.15 0-2.635-.534-4.656-1.598-6.066-1.065-1.408-2.55-2.113-4.45-2.113-1.902 0-3.391.711-4.467 2.131m9.793-.79c1.282 1.603 1.924 3.883 1.924 6.837 0 2.932-.653 5.224-1.958 6.873-1.306 1.648-3.081 2.474-5.326 2.474-2.268 0-4.05-.82-5.343-2.457-1.295-1.638-1.942-3.9-1.942-6.787 0-2.93.659-5.222 1.976-6.872 1.317-1.649 3.098-2.473 5.343-2.473 2.267 0 4.043.801 5.326 2.405M417.755 80.64c.79.975 1.186 2.32 1.186 4.038v12.748h-1.168V84.85c0-1.534-.292-2.691-.876-3.47-.584-.78-1.426-1.17-2.526-1.17-2.085 0-3.964 1.365-5.636 4.09v13.126h-1.168V84.85c0-1.534-.291-2.691-.875-3.47-.584-.78-1.426-1.17-2.526-1.17-2.108 0-3.974 1.365-5.601 4.09v13.126h-1.168V79.559h.996l.137 3.298c.734-1.122 1.592-2.015 2.578-2.68.984-.664 2.027-.996 3.126-.996 1.168 0 2.13.332 2.887.996.756.665 1.248 1.615 1.477 2.852.757-1.191 1.637-2.13 2.646-2.818 1.008-.687 2.073-1.03 3.196-1.03 1.419 0 2.525.486 3.315 1.46M446.96 80.64c.792.975 1.187 2.32 1.187 4.038v12.748h-1.168V84.85c0-1.534-.292-2.691-.876-3.47-.584-.78-1.426-1.17-2.526-1.17-2.085 0-3.964 1.365-5.636 4.09v13.126h-1.168V84.85c0-1.534-.291-2.691-.875-3.47-.584-.78-1.426-1.17-2.526-1.17-2.108 0-3.974 1.365-5.601 4.09v13.126h-1.168V79.559h.996l.137 3.298c.734-1.122 1.592-2.015 2.578-2.68.984-.664 2.027-.996 3.126-.996 1.168 0 2.13.332 2.887.996.756.665 1.248 1.615 1.477 2.852.757-1.191 1.637-2.13 2.646-2.818 1.008-.687 2.073-1.03 3.196-1.03 1.419 0 2.525.486 3.315 1.46M467.835 97.426h-1.031l-.034-3.471c-.642 1.146-1.466 2.068-2.474 2.767-1.009.699-2.199 1.048-3.573 1.048-1.627 0-2.881-.47-3.763-1.41-.882-.938-1.323-2.29-1.323-4.054V79.559h1.168v12.644c0 3 1.363 4.5 4.09 4.5 1.236 0 2.319-.353 3.247-1.064.927-.71 1.769-1.706 2.525-2.99V79.56h1.168v17.867zM486.785 80.607c.812.95 1.22 2.308 1.22 4.07v12.749h-1.169V84.85c0-1.58-.315-2.75-.945-3.505-.63-.756-1.575-1.134-2.835-1.134-1.283 0-2.417.35-3.4 1.048-.986.7-1.937 1.713-2.853 3.04v13.127h-1.168V79.559h.996l.137 3.333c1.742-2.474 3.871-3.711 6.392-3.711 1.603 0 2.812.476 3.625 1.426"/><path fill="#F26E24" mask="url(#b)" d="M0 62.49h228.333v-8.667H0zM267.333 62.49h220v-8.667h-220z"/></g></svg>
