<?xml version="1.0" encoding="UTF-8"?>
<svg viewBox="0 0 300 190" version="1.1" xmlns="http://www.w3.org/2000/svg" xmlns:xlink="http://www.w3.org/1999/xlink">
    <title>Untitled</title>
    <defs>
        <polygon id="path-1" points="250.9376 0.249 0.2306 0.249 0.2306 134.2489 250.9376 134.2489 250.9376 0.249"></polygon>
    </defs>
    <g id="Page-1" stroke="none" stroke-width="1" fill="none" fill-rule="evenodd">
        <g transform="translate(20.000000, 21.000000)">
            <path d="M257.5,136.25 C257.5,143.155 199.856,148.75 128.75,148.75 C57.644,148.75 0,143.155 0,136.25 C0,129.345 57.644,123.75 128.75,123.75 C199.856,123.75 257.5,129.345 257.5,136.25" id="Fill-1" fill="#DCF1FA"></path>
            <polygon id="Fill-3" fill="#2265A9" points="159.2598 21.3364 120.2718 21.4974 114.7968 42.3334 165.6508 42.3334"></polygon>
            <polygon id="Fill-5" fill="#2265A9" points="66.5684 24.1641 60.8624 42.3331 108.0434 42.3331 112.4004 24.0041"></polygon>
            <path d="M207.7944,21.2725 C207.9224,22.0105 208.6194,23.5435 209.6224,25.4605 L233.0914,42.6935 C233.1944,42.7695 233.2734,42.8635 233.3384,42.9645 C236.4224,42.8575 238.2584,42.6195 239.0394,42.4045 C237.7804,39.0855 228.2704,23.3665 226.6214,21.5285 C225.5624,21.2645 220.0224,20.8895 214.5244,20.8895 C210.4924,20.8895 208.5284,21.0995 207.7944,21.2725" id="Fill-7" fill="#2265A9"></path>
            <polygon id="Fill-9" fill="#2265A9" points="16.0269 42.3389 55.5439 42.4969 59.9009 24.1669 21.7339 24.1669"></polygon>
            <path d="M220.2222,42.4883 C220.9702,42.7143 224.6482,43.0223 229.7902,43.0223 C229.9192,43.0223 230.0292,43.0193 230.1552,43.0193 L211.9312,29.6373 C215.1012,35.1373 219.1052,41.3703 220.2222,42.4883" id="Fill-11" fill="#2265A9"></path>
            <path d="M165.8916,21.6665 C166.2626,25.3645 172.3086,41.9465 173.8106,44.0415 C174.2356,44.1635 175.9156,44.4265 182.4696,44.4265 C185.3816,44.4265 188.7166,44.3755 192.0196,44.3045 L170.0946,28.9865 C169.6416,28.6695 169.5306,28.0465 169.8476,27.5935 C170.1636,27.1415 170.7866,27.0305 171.2396,27.3465 L195.3976,44.2245 C198.7416,44.1395 201.8816,44.0425 204.3096,43.9685 C206.8586,43.8905 208.7016,43.8335 209.3336,43.8335 C211.4916,43.8335 212.7306,42.6035 212.7486,42.1955 C212.3836,41.5005 204.4676,27.5975 201.0856,21.6665 L165.8916,21.6665 Z" id="Fill-13" fill="#2265A9"></path>
            <path d="M24.9688,93.7266 L23.7408,93.7496 C23.0628,93.7626 17.0818,93.8856 15.9288,94.2056 C15.5638,94.3076 14.4628,94.6136 14.6768,105.6246 L11.0898,105.6246 L9.9058,108.8126 L18.4998,108.8126 L18.4998,108.3126 C18.4998,100.3746 24.0498,94.6586 24.1058,94.6016 L24.9688,93.7266 Z" id="Fill-15" fill="#2265A9"></path>
            <path d="M31.5835,99.084 C28.1055,99.084 25.1665,105.076 25.1665,112.168 C25.1665,119.26 28.1055,125.251 31.5835,125.251 C35.0615,125.251 38.0005,119.26 38.0005,112.168 C38.0005,105.076 35.0615,99.084 31.5835,99.084" id="Fill-17" fill="#2265A9"></path>
            <g id="Group-21" transform="translate(2.000000, 0.751000)">
                <mask id="mask-2" fill="white">
                    <use xlink:href="#path-1"></use>
                </mask>
                <g id="Clip-20"></g>
                <path d="M227.3096,106.7119 C228.4746,97.5099 240.1366,68.7469 245.7996,57.6719 C246.0066,65.1449 246.5546,80.1999 246.9736,91.3889 L246.9716,91.3919 L246.9736,91.3939 C247.2236,98.0659 247.4266,103.3619 247.4846,104.8509 C246.1866,105.1089 241.2266,105.9239 227.3096,106.7119 L227.3096,106.7119 Z M174.0046,108.2489 L173.3586,108.2419 C173.5516,103.9349 174.6636,74.6599 170.1556,56.9119 C181.9576,60.8569 190.7826,66.2859 198.2066,71.6539 C211.3246,81.1389 219.0106,92.7039 221.6956,107.0029 C210.7326,107.5239 195.3826,107.9989 174.0046,108.2489 L174.0046,108.2489 Z M172.3576,108.2329 L152.7216,108.0339 C148.4036,96.7609 141.2966,84.9159 138.8336,84.9159 C138.3576,84.9159 136.7646,84.8579 134.5586,84.7749 C127.8246,84.5269 115.5106,84.0739 110.5116,84.3779 C110.6216,80.6319 111.4876,60.8189 111.9206,50.9839 C118.7056,50.9929 124.7886,50.9989 129.7496,50.9989 C145.8456,50.9989 158.5846,53.1919 169.0306,56.5459 C173.7056,74.0929 172.5466,104.0529 172.3576,108.2329 L172.3576,108.2329 Z M149.6056,108.0029 C148.6446,105.3329 141.8596,87.9989 127.9996,87.9989 C112.5986,87.9989 110.3176,98.7809 110.2516,109.4979 C109.2996,109.4939 108.2506,109.4799 107.1226,109.4549 C106.7506,102.0869 106.1516,82.7369 107.7136,50.9779 C108.7986,50.9789 109.8656,50.9809 110.9196,50.9829 C110.4546,61.5379 109.4996,83.3799 109.4996,84.9159 L109.4996,85.4589 L110.0416,85.4139 C114.5576,85.0399 127.5446,85.5169 134.5206,85.7749 C136.7376,85.8569 138.3396,85.9159 138.8336,85.9159 C140.3006,85.9159 146.9356,95.8709 151.6446,108.0239 L149.6056,108.0029 Z M56.3236,109.8719 C56.2326,109.1969 56.1486,108.4519 56.0726,107.6459 C69.0306,108.5439 92.6986,110.0969 106.1736,110.4329 C106.2196,111.2599 106.2596,111.8869 106.2886,112.3069 C93.3016,111.7009 70.1446,110.6079 56.3236,109.8719 L56.3236,109.8719 Z M55.9666,50.8679 C73.0246,50.9089 91.2956,50.9509 106.7126,50.9759 C105.1576,82.6269 105.7476,101.9779 106.1216,109.4319 C92.6046,109.0909 68.8756,107.5319 55.9836,106.6379 C54.8466,92.7819 55.5776,63.4519 55.9666,50.8679 L55.9666,50.8679 Z M55.3066,42.9809 C55.1996,43.4309 54.7966,43.7489 54.3336,43.7489 L54.3296,43.7489 L12.6626,43.5829 C12.3446,43.5809 12.0466,43.4289 11.8596,43.1729 C11.6716,42.9159 11.6176,42.5859 11.7126,42.2829 L18.0456,22.1159 C18.1766,21.6989 18.5626,21.4159 18.9996,21.4159 L59.1666,21.4159 C59.4726,21.4159 59.7616,21.5559 59.9516,21.7949 C60.1406,22.0359 60.2096,22.3489 60.1396,22.6469 L55.3066,42.9809 Z M16.4226,16.2519 C33.1206,6.0349 106.7896,1.2489 155.9996,1.2489 C202.9196,1.2489 216.8776,7.1679 222.8496,10.3129 C224.8196,12.3249 224.8216,12.9239 224.7666,13.0569 C224.7106,13.1899 224.3556,13.4989 222.2496,13.4989 C220.2616,13.4989 207.6316,13.6589 193.0076,13.8449 C181.8856,13.9859 169.6596,14.1409 160.2446,14.2489 C145.1476,14.4219 83.0206,16.1669 45.9006,17.2089 C29.5626,17.6679 17.7586,17.9989 16.9996,17.9989 C16.7306,17.9989 16.2586,17.9619 16.1166,17.7129 C15.9126,17.3529 16.2386,16.5759 16.4296,16.2549 L16.4226,16.2519 Z M239.1626,42.1819 C239.0736,43.0639 238.9526,44.2709 227.7896,44.2709 C226.2066,44.2709 218.2516,44.2289 217.0856,43.3969 C216.1046,42.6959 211.7546,35.8409 209.6426,32.3259 C208.0826,29.7299 206.9356,27.6889 206.0846,26.0629 L206.0756,26.0549 C205.8166,25.8649 205.6926,25.5749 205.6836,25.2779 C203.4546,20.8659 203.7396,20.0059 203.8916,19.5789 C204.1446,18.8709 204.4066,18.1389 212.5246,18.1389 C212.6426,18.1389 224.4106,18.2089 225.7216,19.0839 C226.8746,19.8529 239.3726,40.0829 239.1626,42.1819 L239.1626,42.1819 Z M212.3516,42.7249 C211.6266,43.8989 209.7936,45.0829 207.3336,45.0829 C206.7316,45.0829 204.9026,45.1389 202.3716,45.2159 C196.7846,45.3879 187.4346,45.6749 180.4696,45.6749 C171.3456,45.6749 170.8746,45.2049 170.4596,44.7899 C169.4126,43.7419 166.6046,36.3469 165.2666,32.5839 C161.2276,21.2249 161.8656,19.9489 162.1056,19.4679 C162.2746,19.1289 162.6216,18.9159 162.9996,18.9159 L199.6666,18.9159 C200.0266,18.9159 200.3576,19.1079 200.5356,19.4199 C201.0056,20.2449 212.0556,39.6229 212.5616,40.6349 C212.8696,41.2509 212.7926,42.0119 212.3516,42.7249 L212.3516,42.7249 Z M110.7076,43.1929 C110.5186,42.9479 110.4546,42.6289 110.5326,42.3289 L116.5326,19.4949 C116.6476,19.0569 117.0426,18.7509 117.4966,18.7489 L157.9966,18.5829 L157.9996,18.5829 C158.4396,18.5829 158.8286,18.8699 158.9566,19.2919 L165.9566,42.2919 C166.0486,42.5939 165.9926,42.9229 165.8036,43.1779 C165.6146,43.4329 165.3166,43.5829 164.9996,43.5829 L111.4996,43.5829 C111.1896,43.5829 110.8976,43.4389 110.7076,43.1929 L110.7076,43.1929 Z M107.9756,45.8959 C109.0546,45.9009 110.1066,45.9069 111.1436,45.9119 C111.1116,46.6469 111.0476,48.0779 110.9636,49.9829 C109.9116,49.9809 108.8466,49.9789 107.7616,49.9779 C107.8296,48.6389 107.9006,47.2769 107.9756,45.8959 L107.9756,45.8959 Z M106.9746,45.8899 C106.8996,47.2739 106.8286,48.6359 106.7606,49.9759 C91.3436,49.9509 73.0646,49.9089 55.9986,49.8679 C56.0616,47.8609 56.1136,46.3769 56.1426,45.5859 C73.3816,45.6949 92.0146,45.8099 106.9746,45.8899 L106.9746,45.8899 Z M106.8336,43.5829 L57.4996,43.5829 C57.1816,43.5829 56.8826,43.4309 56.6936,43.1739 C56.5056,42.9179 56.4506,42.5869 56.5456,42.2829 L62.8796,22.1159 C63.0096,21.6999 63.3946,21.4169 63.8306,21.4159 L111.6636,21.2489 L111.6666,21.2489 C111.9716,21.2489 112.2606,21.3879 112.4506,21.6279 C112.6406,21.8679 112.7106,22.1819 112.6396,22.4809 L107.8066,42.8139 C107.6996,43.2649 107.2966,43.5829 106.8336,43.5829 L106.8336,43.5829 Z M168.7096,55.3909 C158.2956,52.1229 145.6446,49.9989 129.7496,49.9989 C124.7996,49.9989 118.7316,49.9929 111.9646,49.9839 C112.0496,48.0569 112.1136,46.6179 112.1446,45.9169 C121.9276,45.9669 129.6266,45.9989 133.4996,45.9989 C140.7256,45.9989 153.5506,47.4399 167.4306,51.6569 C167.8956,52.8079 168.3216,54.0569 168.7096,55.3909 L168.7096,55.3909 Z M29.5836,125.4999 C25.4246,125.4999 22.1666,119.3149 22.1666,111.4169 C22.1666,103.5199 25.4246,97.3329 29.5836,97.3329 C33.7426,97.3329 36.9996,103.5199 36.9996,111.4169 C36.9996,119.3149 33.7426,125.4999 29.5836,125.4999 L29.5836,125.4999 Z M47.3366,106.0229 C46.2176,103.4859 40.3096,90.4989 36.7496,90.4989 C33.3016,90.4989 11.9886,89.5099 11.7736,89.4999 L11.6586,89.4939 L11.5536,89.5389 C11.0796,89.7419 9.5496,91.1369 9.5006,100.5359 C7.0476,100.8999 4.7196,103.8579 3.8686,106.7489 L1.2686,106.7489 L1.4876,100.8429 L4.0066,99.8349 L3.9996,99.4899 C3.9926,99.0909 3.2916,60.1219 4.9156,50.7489 C8.7636,50.7519 20.7636,50.7809 36.1866,50.8189 C42.0996,50.8339 48.4386,50.8499 54.9666,50.8659 C54.5786,63.4259 53.8556,92.5639 54.9766,106.5669 C51.0086,106.2899 48.2246,106.0879 47.3366,106.0229 L47.3366,106.0229 Z M247.9856,91.6819 C248.6876,90.6279 250.9376,86.9199 250.9376,82.6239 C250.9376,76.6329 248.2346,74.3329 247.3286,73.7299 C247.0636,66.2349 246.8346,59.3629 246.7496,55.7369 L246.7066,53.8809 L245.8116,55.5079 C240.3926,65.3599 227.4276,96.9529 226.2956,106.7679 C225.1566,106.8299 223.9606,106.8929 222.7046,106.9539 C219.9926,92.3289 212.1696,80.5169 198.7926,70.8439 C191.1656,65.3289 182.0756,59.7499 169.8466,55.7519 C169.4826,54.4339 169.0846,53.1899 168.6496,52.0329 C190.7256,58.9709 215.1166,72.9809 223.7746,99.4039 L224.2616,100.8899 L224.7266,99.3989 C225.5446,96.7819 226.3516,94.0139 227.2076,91.0819 C231.6136,75.9779 236.6066,58.8569 246.3286,50.3759 L246.4836,50.2399 L246.4986,50.0349 C246.5096,49.8849 246.7056,46.2819 241.9186,38.9749 C237.5056,32.2399 229.9676,19.2819 229.0286,17.6649 C229.2056,16.6959 229.5436,12.8169 224.4896,10.0599 C224.1736,9.8879 223.8306,9.7009 223.4576,9.5039 C223.4206,9.4659 223.3916,9.4339 223.3536,9.3959 L223.3186,9.4299 C217.2776,6.2469 203.1726,0.2489 155.9996,0.2489 C112.5876,0.2489 20.4076,4.7109 12.5606,18.5099 C11.1806,21.0399 12.1156,23.5309 12.4546,24.2719 L4.2696,45.2439 L4.9966,45.2489 C5.4976,45.2529 28.5186,45.4099 55.1426,45.5799 C55.1136,46.3839 55.0616,47.8689 54.9976,49.8659 C48.4596,49.8499 42.1106,49.8339 36.1886,49.8189 C20.1586,49.7799 7.8256,49.7489 4.4996,49.7489 L4.0906,49.7489 L4.0096,50.1509 C2.3346,58.5239 2.9196,94.9399 2.9936,99.1629 L0.5126,100.1549 L0.2306,107.7489 L4.6406,107.7489 L4.7346,107.3699 C5.4296,104.5939 7.7626,101.4989 9.9996,101.4989 L10.4996,101.4989 L10.4996,100.9989 C10.4996,92.6879 11.6776,90.8079 11.9086,90.5069 C14.1406,90.6099 33.4096,91.4989 36.7496,91.4989 C39.0606,91.4989 43.9816,100.8219 46.5416,106.6979 L46.6626,106.9759 L46.9626,106.9979 C47.0826,107.0069 50.2066,107.2369 55.0636,107.5749 C55.1376,108.3839 55.2186,109.1359 55.3076,109.8179 C50.7966,109.5749 47.4056,109.3759 45.8956,109.2529 C42.8716,108.8749 38.5506,97.8189 37.1416,93.5909 L37.0276,93.2489 L31.6666,93.2489 C25.8716,93.2489 18.1666,95.1149 18.1666,111.2489 C18.1666,125.2209 24.7086,134.2489 34.8336,134.2489 C39.0626,134.2489 42.4996,132.8769 45.0506,130.1699 C49.8796,125.0469 50.0616,116.7969 50.0176,114.5949 C53.9896,114.6859 79.1526,115.2599 89.6736,115.5679 C89.9426,124.8739 97.9356,130.4159 105.6666,130.4159 C113.0326,130.4159 115.6546,126.1869 115.7626,126.0059 L115.8256,125.8389 C115.8526,125.6869 116.4996,122.0309 116.4996,113.5829 C116.4996,106.6399 118.4046,101.3089 122.1606,97.7379 C127.5716,92.5939 135.0666,92.9139 135.1416,92.9149 L138.0296,93.0619 L135.3586,91.9539 C135.0006,91.8069 126.5206,88.3629 119.3946,92.0549 C116.5096,93.5489 114.4866,96.7459 113.6976,101.0579 C112.8896,105.4699 113.5566,110.3089 115.2436,112.7219 C114.0516,112.6669 111.1976,112.5349 107.2926,112.3539 C107.2656,111.9539 107.2246,111.3299 107.1756,110.4559 C108.4826,110.4829 109.6836,110.4989 110.7496,110.4989 L111.2496,110.4989 L111.2496,109.9989 C111.2496,99.0919 113.2796,88.9989 127.9996,88.9989 C142.2126,88.9989 148.7106,108.4569 148.7746,108.6529 L148.8856,108.9949 L174.0056,109.2489 C237.5906,108.5069 247.7346,105.8439 248.1356,105.7309 L248.5146,105.6229 L248.4996,105.2299 C248.4946,105.0809 248.2716,99.3189 247.9856,91.6819 L247.9856,91.6819 Z" id="Fill-19" fill="#2265A9" mask="url(#mask-2)"></path>
            </g>
            <path d="M133.584,105.251 C128.943,105.251 125.167,112.279 125.167,120.918 C125.167,129.557 128.943,136.584 133.584,136.584 C138.225,136.584 142,129.557 142,120.918 C142,112.279 138.225,105.251 133.584,105.251" id="Fill-22" fill="#2265A9"></path>
            <path d="M133.584,137.584 C128.392,137.584 124.167,130.107 124.167,120.918 C124.167,111.728 128.392,104.251 133.584,104.251 C138.776,104.251 143,111.728 143,120.918 C143,130.107 138.776,137.584 133.584,137.584 L133.584,137.584 Z M157.75,122.251 C151.104,122.251 149.553,117.122 148.905,112.063 C147.106,103.64 140.764,96.251 135.334,96.251 C121.193,96.251 119.667,114.608 119.667,122.501 C119.667,141.855 130.343,148.751 140.334,148.751 C157.038,148.751 158.239,123.03 158.25,122.771 L158.27,122.251 L157.75,122.251 Z" id="Fill-24" fill="#2265A9"></path>
            <path d="M215.917,121.3311 L215.917,112.0841 L215.906,111.5081 L215.334,111.5911 C214.013,111.7831 173.328,111.8341 152,111.8341 L151.43,111.8341 L151.504,112.3991 C152.496,119.9361 158.292,121.1341 163.23,121.3341 C165.055,121.4071 170.534,121.4451 179.516,121.4451 C194.796,121.4451 215.215,121.3351 215.42,121.3341 L215.917,121.3311 Z" id="Fill-26" fill="#2265A9"></path>
            <path d="M196.501,123.4502 C197.082,132.3382 204.338,141.3342 217.084,141.3342 C232.419,141.3342 235.3,123.6722 235.328,123.4932 L235.416,122.9182 L196.466,122.9182 L196.501,123.4502 Z" id="Fill-28" fill="#2265A9"></path>
            <path d="M246.4531,109.6465 L245.8981,109.7615 C245.8381,109.7735 239.6651,111.0055 219.3251,111.3335 L218.8331,111.3415 L218.8331,111.8345 C218.8331,116.6065 218.7511,120.7825 218.7501,120.8245 L218.7391,121.3625 L219.2771,121.3335 C220.2251,121.2825 242.5531,120.0655 246.4051,118.8095 L246.7421,118.6995 L246.7501,118.3445 C246.8331,114.4475 246.5021,110.2525 246.4981,110.2105 L246.4531,109.6465 Z" id="Fill-30" fill="#2265A9"></path>
            <path d="M251.7021,108.5332 C250.9261,108.5332 250.0741,108.6092 249.1691,108.7582 L248.7501,108.8262 L248.7511,117.8012 L249.2171,117.8332 C249.2171,117.8332 249.4071,117.8462 249.7281,117.8462 C250.6541,117.8462 252.4471,117.7412 254.0571,117.0442 C256.1461,116.1382 257.2501,114.5102 257.2501,112.3342 C257.2501,110.5812 255.7971,108.5332 251.7021,108.5332" id="Fill-32" fill="#2265A9"></path>
            <path d="M180.334,85.833 C180.334,91.347 185.194,95.833 191.167,95.833 C197.14,95.833 202,91.347 202,85.833 C202,80.319 197.14,75.833 191.167,75.833 C185.194,75.833 180.334,80.319 180.334,85.833" id="Fill-34" fill="#2265A9"></path>
            <path d="M180.917,73 C183.536,73 185.667,71.168 185.667,68.917 C185.667,66.666 183.536,64.833 180.917,64.833 C178.298,64.833 176.167,66.666 176.167,68.917 C176.167,71.168 178.298,73 180.917,73" id="Fill-36" fill="#2265A9"></path>
        </g>
    </g>
</svg>
